<svg width="36" height="36" viewBox="0 0 36 36" fill="none" xmlns="http://www.w3.org/2000/svg">
<path d="M9 2.93994V33.0599" stroke="#2F2E41" stroke-width="2" stroke-miterlimit="10" stroke-linecap="round"/>
<path d="M9 14.0098C11.2091 14.0098 13 12.2189 13 10.0098C13 7.80063 11.2091 6.00977 9 6.00977C6.79086 6.00977 5 7.80063 5 10.0098C5 12.2189 6.79086 14.0098 9 14.0098Z" fill="#F55681" stroke="#2F2E41" stroke-width="2" stroke-miterlimit="10"/>
<path d="M9 28.77C11.2091 28.77 13 26.9792 13 24.77C13 22.5609 11.2091 20.77 9 20.77C6.79086 20.77 5 22.5609 5 24.77C5 26.9792 6.79086 28.77 9 28.77Z" fill="white" stroke="#2F2E41" stroke-width="2" stroke-miterlimit="10"/>
<path d="M18 8H30.82" stroke="#F55681" stroke-width="2" stroke-miterlimit="10" stroke-linecap="round"/>
<path d="M18 13H25.76" stroke="#F55681" stroke-width="2" stroke-miterlimit="10" stroke-linecap="round"/>
<path d="M18 23H30.82" stroke="#2F2E41" stroke-width="2" stroke-miterlimit="10" stroke-linecap="round"/>
<path d="M18 28H25.76" stroke="#2F2E41" stroke-width="2" stroke-miterlimit="10" stroke-linecap="round"/>
</svg>
