<svg width="64" height="64" viewBox="0 0 64 64" fill="none" xmlns="http://www.w3.org/2000/svg">
<path d="M6.99927 32.5C6.99927 18.42 18.4193 7 32.4993 7C46.5793 7 57.9993 18.42 57.9993 32.5C57.9993 46.58 46.5793 58 32.4993 58" stroke="#F55681" stroke-width="2" stroke-miterlimit="10" stroke-linecap="round" stroke-linejoin="round"/>
<path d="M10.3894 29.1099L6.99937 32.4999L3.60938 29.1099" stroke="#F55681" stroke-width="2" stroke-miterlimit="10" stroke-linecap="round" stroke-linejoin="round"/>
<path d="M32.4995 50C42.1645 50 49.9995 42.165 49.9995 32.5C49.9995 22.835 42.1645 15 32.4995 15C22.8345 15 14.9995 22.835 14.9995 32.5C14.9995 42.165 22.8345 50 32.4995 50Z" stroke="#2F2E41" stroke-width="2" stroke-miterlimit="10" stroke-linecap="round" stroke-linejoin="round"/>
<path d="M36.0303 29.4217L35.6868 30.4503C35.6173 30.6608 35.4207 30.8018 35.1983 30.8018H26.8863C26.5349 30.8018 26.2867 31.1453 26.3979 31.4789C26.4674 31.6894 26.6639 31.8304 26.8863 31.8304H34.5133C34.8647 31.8304 35.113 32.1739 35.0018 32.5075L33.6297 36.6238C33.5602 36.8342 33.3636 36.9752 33.1412 36.9752H26.4316C26.2092 36.9752 26.0126 36.8342 25.9431 36.6238L25.5996 35.5952C25.4884 35.2616 25.7366 34.9181 26.0881 34.9181H31.6579C31.8783 34.9181 32.0749 34.7771 32.1464 34.5666C32.2576 34.233 32.0094 33.8895 31.6579 33.8895H25.403C25.1806 33.8895 24.9841 33.7485 24.9146 33.538L23.5425 29.4217C23.4313 29.0881 23.6795 28.7446 24.0309 28.7446H35.5419C35.8933 28.7446 36.1415 29.0901 36.0303 29.4217Z" fill="#2F2E41"/>
<path d="M41.3981 29.4217L41.0545 30.4503C40.985 30.6608 40.7885 30.8018 40.5661 30.8018H38.769L39.4541 28.7446H40.9076C41.2611 28.7446 41.5093 29.0901 41.3981 29.4217Z" fill="#2F2E41"/>
<path d="M43.506 26.3353L43.1625 27.3639C43.093 27.5744 42.8964 27.7154 42.674 27.7154H39.8008L40.2515 26.3611C40.3905 25.9422 40.7837 25.6582 41.2265 25.6582H43.0176C43.369 25.6582 43.6172 26.0017 43.506 26.3353Z" fill="#2F2E41"/>
<path d="M36.9673 30.8027H38.7643L36.8243 36.6247C36.7548 36.8352 36.5582 36.9762 36.3358 36.9762H35.2516C34.9002 36.9762 34.652 36.6327 34.7632 36.2991L36.4788 31.1542C36.5483 30.9437 36.7449 30.8027 36.9673 30.8027Z" fill="#2F2E41"/>
<path d="M39.7948 27.7144L39.4513 28.7429H37.9958C37.6443 28.7429 37.3961 28.3994 37.5073 28.0658C37.5768 27.8553 37.7734 27.7144 37.9958 27.7144H39.7948Z" fill="#2F2E41"/>
<path d="M35.2352 39.3688C35.6903 39.3688 36.0592 38.9999 36.0592 38.5448C36.0592 38.0896 35.6903 37.7207 35.2352 37.7207C34.7801 37.7207 34.4111 38.0896 34.4111 38.5448C34.4111 38.9999 34.7801 39.3688 35.2352 39.3688Z" fill="#2F2E41"/>
<path d="M29.7874 39.3688C30.2425 39.3688 30.6115 38.9999 30.6115 38.5448C30.6115 38.0896 30.2425 37.7207 29.7874 37.7207C29.3323 37.7207 28.9634 38.0896 28.9634 38.5448C28.9634 38.9999 29.3323 39.3688 29.7874 39.3688Z" fill="#2F2E41"/>
</svg>
