<svg width="64" height="64" viewBox="0 0 64 64" fill="none" xmlns="http://www.w3.org/2000/svg">
<path d="M44.3198 54.9001H8.32984C7.22984 54.9001 6.33984 54.0101 6.33984 52.9101V9.31007C6.33984 8.21007 7.22984 7.32007 8.32984 7.32007H44.3198C45.4198 7.32007 46.3098 8.21007 46.3098 9.31007V52.9101C46.3098 54.0101 45.4198 54.9001 44.3198 54.9001Z" fill="white" stroke="#2F2E41" stroke-width="2" stroke-miterlimit="10" stroke-linecap="round" stroke-linejoin="round"/>
<path d="M46.4098 44.8401C50.0383 44.8401 52.9798 41.8986 52.9798 38.2701C52.9798 34.6416 50.0383 31.7001 46.4098 31.7001C42.7813 31.7001 39.8398 34.6416 39.8398 38.2701C39.8398 41.8986 42.7813 44.8401 46.4098 44.8401Z" fill="white" stroke="#F55681" stroke-width="2" stroke-miterlimit="10" stroke-linecap="round" stroke-linejoin="round"/>
<path d="M37.1297 59.3001C34.8997 59.3001 33.2697 57.1101 33.9997 55.0001C35.7797 49.8601 40.6697 46.1601 46.4197 46.1601C52.1697 46.1601 57.0597 49.8501 58.8397 55.0001C59.5697 57.1101 57.9297 59.3001 55.7097 59.3001H37.1297Z" fill="white" stroke="#F55681" stroke-width="2" stroke-miterlimit="10" stroke-linecap="round" stroke-linejoin="round"/>
<path d="M46.2795 56.7101L45.1795 55.6201C45.0695 55.5101 45.0195 55.3601 45.0395 55.2201L45.7495 51.1201C45.7695 51.0301 45.8595 50.9601 45.9795 50.9601H47.0495C47.1595 50.9601 47.2595 51.0301 47.2795 51.1201L47.9895 55.2201C48.0195 55.3601 47.9695 55.5101 47.8495 55.6201L46.7495 56.7101C46.6395 56.8401 46.4095 56.8401 46.2795 56.7101Z" fill="#F55681"/>
<path d="M47.1598 48.7601H45.8898C45.7098 48.7601 45.5798 48.9201 45.6098 49.1001L45.7598 49.9801C45.7798 50.1201 45.8998 50.2201 46.0398 50.2201H47.0098C47.1498 50.2201 47.2698 50.1201 47.2898 49.9801L47.4398 49.1001C47.4698 48.9201 47.3398 48.7601 47.1598 48.7601Z" fill="#F55681"/>
<path d="M13.4395 39.7301H22.7394" stroke="#2F2E41" stroke-width="2" stroke-miterlimit="10" stroke-linecap="round" stroke-linejoin="round"/>
<path d="M13.4395 44.3801H32.0295" stroke="#2F2E41" stroke-width="2" stroke-miterlimit="10" stroke-linecap="round" stroke-linejoin="round"/>
<path d="M13.4395 32.0601L22.7995 22.7001L26.3294 26.2301L34.8294 17.7301" fill="white"/>
<path d="M13.4395 32.0601L22.7995 22.7001L26.3294 26.2301L34.8294 17.7301" stroke="#2F2E41" stroke-width="2" stroke-miterlimit="10" stroke-linecap="round" stroke-linejoin="round"/>
<path d="M37.68 13.8001L33.43 14.9401C32.72 15.1301 32.49 16.0101 33 16.5301L36.11 19.6401C36.63 20.1601 37.51 19.9201 37.7 19.2101L38.84 14.9601C39.04 14.2601 38.39 13.6201 37.68 13.8001Z" fill="#2F2E41"/>
</svg>
