<svg width="64" height="64" viewBox="0 0 64 64" fill="none" xmlns="http://www.w3.org/2000/svg">
<path d="M37.8603 26.1046H26.1396V56.3795H37.8603V26.1046Z" fill="white" stroke="#F55681" stroke-width="2" stroke-miterlimit="10" stroke-linecap="round" stroke-linejoin="round"/>
<path d="M53.4843 36.852H41.7637V56.39H53.4843V36.852Z" fill="white" stroke="#2F2E41" stroke-width="2" stroke-miterlimit="10" stroke-linecap="round" stroke-linejoin="round"/>
<path d="M22.2363 44.6588H10.5156V56.3795H22.2363V44.6588Z" fill="white" stroke="#2F2E41" stroke-width="2" stroke-miterlimit="10" stroke-linecap="round" stroke-linejoin="round"/>
<path d="M2.69824 56.3794H61.3016" stroke="#2F2E41" stroke-width="2" stroke-miterlimit="10" stroke-linecap="round" stroke-linejoin="round"/>
<path d="M32.0005 22.2011C36.8553 22.2011 40.791 18.2655 40.791 13.4106C40.791 8.55576 36.8553 4.62012 32.0005 4.62012C27.1456 4.62012 23.21 8.55576 23.21 13.4106C23.21 18.2655 27.1456 22.2011 32.0005 22.2011Z" fill="white" stroke="#F55681" stroke-width="2" stroke-miterlimit="10" stroke-linecap="round" stroke-linejoin="round"/>
<path d="M31.4765 17.5651C31.2463 17.5651 31.037 17.5546 30.8486 17.5337C30.6603 17.5128 30.4719 17.4814 30.2835 17.45C30.1056 17.4081 29.9173 17.3558 29.7394 17.3035C29.5615 17.2407 29.3626 17.1674 29.1533 17.0837C29.1847 16.8012 29.237 16.5186 29.3103 16.2256C29.3835 15.9326 29.4777 15.6291 29.5824 15.2942C29.9487 15.4512 30.2835 15.5663 30.5765 15.6396C30.8696 15.7128 31.1626 15.7547 31.4347 15.7547C31.8219 15.7547 32.1253 15.6919 32.3346 15.5558C32.5439 15.4303 32.6486 15.221 32.6486 14.9489C32.6486 14.7082 32.5544 14.5198 32.3765 14.3942C32.1881 14.2687 31.9684 14.1431 31.7068 14.0384L31.0893 13.7768C30.8591 13.6722 30.6289 13.5571 30.4196 13.4419C30.2103 13.3164 30.0219 13.1699 29.8754 12.992C29.7184 12.814 29.6033 12.6047 29.5091 12.3745C29.4149 12.1338 29.3731 11.8513 29.3731 11.5269C29.3731 10.8362 29.5615 10.292 29.9277 9.88388C30.294 9.47575 30.8068 9.21412 31.4661 9.08854V8.0316C31.5916 7.98974 31.7172 7.9688 31.8428 7.95833C31.9684 7.94787 32.073 7.93741 32.1567 7.93741C32.2405 7.93741 32.3451 7.94787 32.4812 7.95833C32.6067 7.9688 32.7323 8.0002 32.8474 8.0316V9.04668C33.1195 9.07808 33.3916 9.1304 33.6741 9.20366C33.9567 9.27691 34.2497 9.36063 34.5637 9.47575C34.5113 9.99899 34.3439 10.5536 34.0823 11.1397C33.8207 11.0245 33.559 10.9199 33.2974 10.8466C33.0358 10.7734 32.7114 10.7315 32.3033 10.7315C32.1986 10.7315 32.1044 10.742 31.9998 10.7525C31.9056 10.7629 31.8114 10.7943 31.7277 10.8362C31.644 10.878 31.5812 10.9408 31.5289 11.0141C31.4765 11.0873 31.4556 11.192 31.4556 11.3176C31.4556 11.5478 31.5393 11.7152 31.6963 11.8303C31.8533 11.9455 32.0312 12.0396 32.2195 12.1024L32.8788 12.3536C33.1404 12.4582 33.3916 12.5734 33.6323 12.6989C33.8625 12.8245 34.0718 12.9815 34.2497 13.1699C34.4276 13.3582 34.5741 13.5885 34.6788 13.8605C34.7834 14.1326 34.8358 14.4675 34.8358 14.8652C34.8358 15.5035 34.6683 16.0372 34.323 16.4977C33.9776 16.9477 33.4962 17.2721 32.8474 17.45V18.8314C32.7323 18.8732 32.6067 18.8942 32.4812 18.9046C32.3556 18.9151 32.2405 18.9255 32.1567 18.9255C32.073 18.9255 31.9684 18.9151 31.8428 18.9046C31.7172 18.8942 31.5916 18.8628 31.4661 18.8314V17.5651H31.4765Z" fill="#F55681"/>
</svg>
