<svg width="64" height="64" viewBox="0 0 64 64" fill="none" xmlns="http://www.w3.org/2000/svg">
<path d="M29.9502 56.78C42.6527 56.78 52.9502 46.4826 52.9502 33.78C52.9502 21.0775 42.6527 10.78 29.9502 10.78C17.2476 10.78 6.9502 21.0775 6.9502 33.78C6.9502 46.4826 17.2476 56.78 29.9502 56.78Z" fill="white" stroke="#2F2E41" stroke-width="2" stroke-miterlimit="10" stroke-linecap="round" stroke-linejoin="round"/>
<path d="M29.9502 56.78C34.4845 56.78 38.1602 46.4826 38.1602 33.78C38.1602 21.0775 34.4845 10.78 29.9502 10.78C25.416 10.78 21.7402 21.0775 21.7402 33.78C21.7402 46.4826 25.416 56.78 29.9502 56.78Z" stroke="#2F2E41" stroke-width="2" stroke-miterlimit="10" stroke-linecap="round" stroke-linejoin="round"/>
<path d="M6.9502 33.78H52.9502" stroke="#2F2E41" stroke-width="2" stroke-miterlimit="10" stroke-linecap="round" stroke-linejoin="round"/>
<path d="M13.0198 50.46L7.7398 45.18C4.8198 42.26 4.8198 37.54 7.7398 34.62C10.6598 31.7 15.3798 31.7 18.2998 34.62C21.2198 37.54 21.2198 42.26 18.2998 45.18L13.0198 50.46Z" fill="white" stroke="#F55681" stroke-width="2" stroke-miterlimit="10" stroke-linecap="round" stroke-linejoin="round"/>
<path d="M49.18 25.15L43.84 19.81C40.5 16.47 40.5 11.05 43.84 7.71002C47.18 4.37002 52.6 4.37002 55.94 7.71002C59.28 11.05 59.28 16.47 55.94 19.81L50.6 25.15C50.2 25.54 49.57 25.54 49.18 25.15Z" fill="#F55681"/>
<path d="M13.0202 43.01C14.7378 43.01 16.1302 41.6176 16.1302 39.9C16.1302 38.1824 14.7378 36.79 13.0202 36.79C11.3026 36.79 9.91016 38.1824 9.91016 39.9C9.91016 41.6176 11.3026 43.01 13.0202 43.01Z" fill="#F55681"/>
<path d="M49.8797 16.91C51.6249 16.91 53.0397 15.4952 53.0397 13.75C53.0397 12.0048 51.6249 10.59 49.8797 10.59C48.1345 10.59 46.7197 12.0048 46.7197 13.75C46.7197 15.4952 48.1345 16.91 49.8797 16.91Z" fill="white"/>
</svg>
