<svg width="64" height="64" viewBox="0 0 64 64" fill="none" xmlns="http://www.w3.org/2000/svg">
<path d="M6.95996 37.4901C9.07996 47.2401 16.76 54.9101 26.5 57.0301" stroke="#2F2E41" stroke-width="2" stroke-miterlimit="10" stroke-linecap="round" stroke-linejoin="round"/>
<path d="M37.4902 57.0401C47.2402 54.9201 54.9102 47.2401 57.0302 37.5001" stroke="#2F2E41" stroke-width="2" stroke-miterlimit="10" stroke-linecap="round" stroke-linejoin="round"/>
<path d="M6.95996 26.5101C9.07996 16.7601 16.76 9.09009 26.5 6.97009" stroke="#2F2E41" stroke-width="2" stroke-miterlimit="10" stroke-linecap="round" stroke-linejoin="round"/>
<path d="M37.4902 6.96014C47.2402 9.08014 54.9102 16.7601 57.0302 26.5001" stroke="#2F2E41" stroke-width="2" stroke-miterlimit="10" stroke-linecap="round" stroke-linejoin="round"/>
<path d="M6.37012 34.7501C7.8889 34.7501 9.12012 33.5189 9.12012 32.0001C9.12012 30.4813 7.8889 29.2501 6.37012 29.2501C4.85133 29.2501 3.62012 30.4813 3.62012 32.0001C3.62012 33.5189 4.85133 34.7501 6.37012 34.7501Z" fill="#F55681"/>
<path d="M57.6299 34.7501C59.1487 34.7501 60.3799 33.5189 60.3799 32.0001C60.3799 30.4813 59.1487 29.2501 57.6299 29.2501C56.1111 29.2501 54.8799 30.4813 54.8799 32.0001C54.8799 33.5189 56.1111 34.7501 57.6299 34.7501Z" fill="#F55681"/>
<path d="M32 60.3801C33.5188 60.3801 34.75 59.1489 34.75 57.6301C34.75 56.1113 33.5188 54.8801 32 54.8801C30.4812 54.8801 29.25 56.1113 29.25 57.6301C29.25 59.1489 30.4812 60.3801 32 60.3801Z" fill="#F55681"/>
<path d="M32 9.12012C33.5188 9.12012 34.75 7.8889 34.75 6.37012C34.75 4.85133 33.5188 3.62012 32 3.62012C30.4812 3.62012 29.25 4.85133 29.25 6.37012C29.25 7.8889 30.4812 9.12012 32 9.12012Z" fill="#F55681"/>
<path d="M32.0005 45.7301C39.5834 45.7301 45.7305 39.583 45.7305 32.0001C45.7305 24.4173 39.5834 18.2701 32.0005 18.2701C24.4176 18.2701 18.2705 24.4173 18.2705 32.0001C18.2705 39.583 24.4176 45.7301 32.0005 45.7301Z" fill="white" stroke="#2F2E41" stroke-width="2" stroke-miterlimit="10" stroke-linecap="round" stroke-linejoin="round"/>
<path d="M31.8398 25.9401V33.1701L34.5798 35.9101" stroke="#F55681" stroke-width="2" stroke-miterlimit="10" stroke-linecap="round" stroke-linejoin="round"/>
</svg>
