<svg width="1402" height="354" viewBox="0 0 1402 354" fill="none" xmlns="http://www.w3.org/2000/svg">
<path d="M1401 0H1V354H1401V0Z" fill="#F5F5F5"/>
<g opacity="0.4">
<path opacity="0.4" d="M849.77 250.04H887.659" stroke="#E0E0E0" stroke-miterlimit="10" stroke-linecap="round"/>
<path opacity="0.4" d="M836.63 256.3H848" stroke="#E0E0E0" stroke-miterlimit="10" stroke-linecap="round"/>
<g opacity="0.4">
<path opacity="0.4" d="M397.57 148.31C382.47 148.31 369.35 156.74 362.64 169.16C359.43 166.83 355.5 165.44 351.23 165.44C347.55 165.44 344.13 166.48 341.2 168.25C338.74 159.4 330.65 152.9 321.02 152.9C318.47 152.9 316.03 153.38 313.77 154.21C311.81 145.09 303.7 138.25 293.99 138.25C291.49 138.25 289.11 138.72 286.91 139.55C276.97 130.08 263.53 124.26 248.73 124.26C228.17 124.26 210.24 135.48 200.69 152.12C186.01 137.64 165.86 128.7 143.62 128.7C120.39 128.7 99.46 138.46 84.64 154.08C84.64 154.07 84.64 154.07 84.64 154.06C77.68 121.25 48.54 96.64 13.66 96.64C9.34 96.64 5.11 97.02 1 97.74V240.64C3 240.99 5.02 241.26 7.07 241.44C9.24 241.64 11.44 241.74 13.66 241.74C32.84 241.74 50.28 234.3 63.25 222.15C69.12 261.27 102.87 291.26 143.62 291.26C182.13 291.26 214.36 264.47 222.75 228.52C230.5 232.65 239.34 234.99 248.73 234.99C277.25 234.99 300.72 213.43 303.76 185.72C307.54 191.21 313.86 194.81 321.03 194.81C325.42 194.81 329.5 193.45 332.86 191.14C335.47 198.78 342.7 204.29 351.23 204.29C354.56 204.29 357.69 203.45 360.43 201.97C366.09 216.98 380.57 227.66 397.56 227.66C419.47 227.66 437.24 209.9 437.24 187.98C437.24 166.06 419.48 148.31 397.57 148.31Z" fill="white"/>
<path opacity="0.4" d="M609 80.62C604.51 80.62 600.4 82.2 597.17 84.82C587.86 69.51 571.02 59.29 551.8 59.29C523.07 59.29 499.69 82.12 498.78 110.63C476.43 112.08 458.75 130.66 458.75 153.37C458.75 177.03 477.93 196.22 501.6 196.22C521.35 196.22 537.97 182.85 542.93 164.68C545.82 165.17 548.78 165.43 551.81 165.43C579.33 165.43 601.95 144.49 604.61 117.67C606.02 118.01 607.49 118.21 609.01 118.21C619.39 118.21 627.8 109.8 627.8 99.42C627.8 89.04 619.38 80.62 609 80.62Z" fill="white"/>
<path opacity="0.4" d="M810.65 81.48C792.18 81.48 775.83 90.51 765.74 104.39C759.59 98.48 751.24 94.84 742.03 94.84C735.31 94.84 729.05 96.78 723.77 100.12C718.79 91.83 709.72 86.28 699.35 86.28C683.63 86.28 670.88 99.03 670.88 114.75C670.88 130.47 683.62 143.22 699.35 143.22C703.12 143.22 706.71 142.48 710 141.15C714.88 154.09 727.38 163.3 742.03 163.3C748.41 163.3 754.38 161.55 759.49 158.51C767.9 178.46 787.64 192.47 810.65 192.47C841.3 192.47 866.15 167.62 866.15 136.97C866.15 106.32 841.3 81.48 810.65 81.48Z" fill="white"/>
</g>
<path opacity="0.4" d="M1401 144.89V225.07H443.94L526.32 253.42H179.68L202.35 266.16L276.19 307.68H1V172.52L64.24 192.42L79.42 197.2L80.98 196.29L120.39 173.4L166.75 188.2L193.46 176.43L213.11 167.77L264.24 145.24L275.76 149.69L300.19 159.13L304.61 160.83H304.62L313.41 164.23L335.91 172.92L341.94 175.25L358.41 181.61L370.61 186.32L390.53 194.02L434.33 173.03L459.43 161L505.77 138.79L533.94 125.29L590.24 98.31L601.24 93.04L619.89 84.1L634.16 77.26L681.36 92.69L718.02 104.68L726.89 107.58L758.51 117.92L775.82 123.58L863.97 152.41L938.76 176.87L958.51 183.32L986.26 192.4L1007.03 199.19L1075.9 183.8L1164.39 209.97L1165.61 210.33L1166.61 209.97L1270.06 172.65L1296.73 179.25L1318.19 168.43L1353.22 150.77L1379.46 137.54L1401 144.89Z" fill="white" stroke="#E6E6E6" stroke-miterlimit="10"/>
<path opacity="0.4" d="M120.39 173.4L128.08 191.52L86.4004 223.05L166.75 188.2L120.39 173.4Z" fill="#E0E0E0"/>
<path opacity="0.4" d="M212.78 275.03L143.47 307.68L115.57 313.73L115.78 307.68L116.11 286.48L116.34 272.06L82.65 263.72L25.57 249.59L1 258.04V248.6L7.07 241.43L33.72 209.97L40.83 201.58L21.03 204.61L17.28 187.93L1 189.17V172.52L64.24 192.42L79.42 197.2L80.44 197.6L91.26 201.89L81.79 209.97L63.79 225.32L63.47 225.59L63.86 225.66L108.19 233.38L111.22 251.6L142.05 249.28L159.22 272.81L193.41 274.23L212.78 275.03Z" fill="#E0E0E0"/>
<path opacity="0.4" d="M264.24 145.24L318.88 192.52L273.92 211.68L526.32 253.42L374.52 200.57L390.53 194.02L264.24 145.24Z" fill="#E0E0E0"/>
<path opacity="0.4" d="M634.16 77.26L653.77 110.68L693.03 113.71L680.02 140.11L802.69 158.62L783.85 175.78L1072.6 219.67L1007.03 199.19L634.16 77.26Z" fill="#E0E0E0"/>
<path opacity="0.4" d="M1075.9 183.8L1093.22 212.69L1128.34 207.95L1132.15 215.79L1165.61 210.33L1075.9 183.8Z" fill="#E0E0E0"/>
<path opacity="0.4" d="M1270.06 172.65L1287.02 183.89L1296.73 179.25L1270.06 172.65Z" fill="#E0E0E0"/>
<path opacity="0.4" d="M1401 144.89V218.04L1396.36 209.97L1385.05 190.32L1387.57 186.76L1397.42 172.82L1388.79 169.15L1386.06 159.89L1379.46 137.54L1401 144.89Z" fill="#E0E0E0"/>
<path opacity="0.4" d="M1401 226.62V282.2H1211.3C1211.35 281.96 1211.41 281.72 1211.48 281.49H1211.49C1213.83 274.13 1227.73 273.93 1227.73 273.93C1238.72 255.84 1264.33 262.21 1264.33 262.21C1279.08 238.46 1304.51 247.47 1304.51 247.47C1317 231.22 1337.75 241.49 1337.75 241.49C1353.67 223.05 1373.13 235.68 1373.13 235.68C1373.13 235.68 1385.24 225.83 1395.83 226.06C1397.69 226.1 1399.42 226.3 1401 226.62Z" fill="#E6E6E6"/>
<path opacity="0.4" d="M1401 264.11V282.2H1211.3C1211.35 281.96 1211.41 281.72 1211.48 281.49H1211.49C1221.32 275.27 1262.91 270.74 1274.08 269.74C1285.96 268.68 1349.37 255.39 1379.46 258.7C1388.2 259.66 1395.31 261.7 1401 264.11Z" fill="#E0E0E0"/>
<path opacity="0.4" d="M1401 166.64V197.88C1396.3 193.44 1391.84 189.79 1387.57 186.76C1362.04 168.66 1343.02 172.85 1318.19 168.43C1314.61 167.8 1310.9 166.99 1307.04 165.9C1270.52 155.61 1246.53 125.43 1246.53 125.43L1241.68 140.17C1241.68 140.17 1236.32 137.79 1235.37 142.77C1234.42 147.74 1240.76 149.79 1240.76 149.79L1234.92 175.7C1228.86 168.27 1227.26 138.05 1227.26 138.05L1221.88 145.14L1211.3 138.05L1216.5 153.09L1213.73 157.66L1208.32 149.38L1211.03 161.32L1188.21 196.85C1180.91 146.64 1218.29 114.77 1218.29 114.77L1207.38 111.14L1208.91 103.81L1202.31 108.56L1174.35 99.34C1212.04 90.58 1231.14 101.37 1231.14 101.37C1225.58 63.55 1261.6 41.41 1261.6 41.41L1260.2 64.94C1260.2 64.94 1250.34 67.43 1250.49 70.41C1250.64 73.39 1257.96 72.74 1257.96 72.74L1258.21 83.85C1295.45 58.59 1329.16 70.92 1329.16 70.92L1304.72 83.93L1296.73 78.31L1300.13 86.93L1289.24 92.25L1277.81 83.24L1283.96 95.46L1269.55 101.72C1303.92 106.64 1307.04 128.54 1307.04 128.54L1279.03 122.95L1276.65 111.32C1273.03 113.52 1269.81 120.99 1269.81 120.99C1261.61 117.33 1254.38 118.73 1254.38 118.73C1268.28 140.46 1312.11 145.87 1346.21 149.79C1348.59 150.06 1350.93 150.39 1353.22 150.77C1366.02 152.88 1377.29 156.45 1386.06 159.89C1392.53 162.43 1397.64 164.89 1401 166.64Z" fill="#E6E6E6"/>
<path opacity="0.4" d="M898.67 175.98L858.03 298.58H960.77L898.67 175.98Z" fill="white" stroke="#E6E6E6" stroke-miterlimit="10"/>
<path opacity="0.4" d="M959.31 106.46L903.24 298.58H1019.56L959.31 106.46Z" fill="white" stroke="#E6E6E6" stroke-miterlimit="10"/>
<path opacity="0.4" d="M898.67 212.7V298.58" stroke="#E0E0E0" stroke-miterlimit="10" stroke-linecap="round"/>
<path opacity="0.4" d="M886.1 240.45L898.67 252.3" stroke="#E0E0E0" stroke-miterlimit="10" stroke-linecap="round"/>
<path opacity="0.4" d="M914.95 230.49L898.67 246.37" stroke="#E0E0E0" stroke-miterlimit="10" stroke-linecap="round"/>
<path opacity="0.4" d="M879.73 265.74L898.67 284.39" stroke="#E0E0E0" stroke-miterlimit="10" stroke-linecap="round"/>
<path opacity="0.4" d="M958.51 153.98V295.17" stroke="#E0E0E0" stroke-miterlimit="10" stroke-linecap="round"/>
<path opacity="0.4" d="M970.95 169.27L958.51 183.32" stroke="#E0E0E0" stroke-miterlimit="10" stroke-linecap="round"/>
<path opacity="0.4" d="M944.34 182.33L959.31 210.33" stroke="#E0E0E0" stroke-miterlimit="10" stroke-linecap="round"/>
<path opacity="0.4" d="M939.04 233.43L958.51 257.97" stroke="#E0E0E0" stroke-miterlimit="10" stroke-linecap="round"/>
<path opacity="0.4" d="M982.59 235.08L961.4 265.74" stroke="#E0E0E0" stroke-miterlimit="10" stroke-linecap="round"/>
<path opacity="0.4" d="M1143.73 238.43H1181.62" stroke="#E0E0E0" stroke-miterlimit="10" stroke-linecap="round"/>
<path opacity="0.4" d="M1130.59 244.69H1141.96" stroke="#E0E0E0" stroke-miterlimit="10" stroke-linecap="round"/>
</g>
<path d="M959.96 204.04C959.96 204.04 962.31 198.64 968.09 199.05C973.87 199.46 976.95 201.35 979.01 206.6C979.01 206.6 983.92 206.75 985.81 209.93C987.7 213.11 986.59 218.22 976.28 217.72C976.28 217.72 958.98 224.79 958.75 224.73C958.52 224.67 951.32 222.71 950.62 215.32C949.93 207.92 953.38 203.57 959.96 204.04Z" fill="#2F2E41"/>
<path d="M1019.75 255.54C1019.75 255.54 1022.38 254.01 1023.19 252.69C1024.01 251.37 1023.26 246.41 1026.09 244.43C1028.92 242.45 1027.92 236.98 1027.92 236.98C1027.92 236.98 1029.33 236.85 1030.09 238.45C1030.86 240.05 1030.19 244.43 1030.19 244.43C1030.19 244.43 1031.41 243.84 1032.53 242.21C1033.65 240.58 1038.53 234.57 1039.93 234.48C1041.3 234.39 1037.49 240.41 1034.77 244.24C1034.68 244.37 1034.7 244.55 1034.83 244.64C1034.96 244.74 1035.14 244.72 1035.24 244.59C1036.24 243.36 1041.13 237.5 1043.46 237.5C1044.03 237.5 1040.67 244.27 1037.64 246.71C1037.49 246.83 1037.46 247.05 1037.58 247.2C1037.7 247.36 1037.93 247.38 1038.08 247.25C1039.3 246.19 1044.29 241.98 1046.46 241.76C1047 241.7 1044.33 246.21 1040.11 249.5C1040.01 249.58 1040 249.72 1040.08 249.81C1040.14 249.88 1040.24 249.9 1040.32 249.86C1040.88 249.6 1043 248.57 1044.59 247.18C1046.44 245.56 1047.15 246.92 1047.15 246.92C1047.15 246.92 1042.84 251.1 1041.16 252.11C1039.48 253.12 1034.12 258.13 1031.96 258.36C1029.8 258.59 1027.28 262.08 1027.27 262.6C1027.28 263.13 1019.75 255.54 1019.75 255.54Z" fill="#A0616A"/>
<path d="M947.581 238.8C947.581 238.8 940.991 236.66 933.941 238.35L919.301 282.2L928.141 304.04L977.251 306.69C977.251 306.69 982.261 293.68 982.821 280.48C982.821 280.48 986.321 296.4 998.911 293.53C1009.95 291.01 1025.58 268.26 1029.27 262.68C1029.7 262.03 1029.48 261.15 1028.79 260.78C1026.69 259.63 1022.5 257.09 1020.02 254C1019.52 253.38 1018.62 253.31 1018.05 253.86C1014.11 257.66 1000.77 270.28 997.521 270.18C993.691 270.07 992.931 249.47 981.901 242.43C976.271 238.84 963.131 241.18 963.131 241.18L947.581 238.8Z" fill="white" stroke="#E6E6E6" stroke-width="0.5" stroke-miterlimit="10"/>
<path d="M1029.28 262.68C1029.71 262.03 1029.49 261.15 1028.8 260.78C1028.45 260.59 1028.02 260.34 1027.57 260.07C1027.36 260.44 1027.14 260.83 1026.89 261.25C1024.74 264.84 1001.75 289.24 997.07 290.27C992.38 291.3 983.88 285.58 984.83 277.87C985.78 270.15 983.38 260.11 983.38 260.11C984.42 267.08 982.97 275.13 982.83 280.48C982.83 280.48 986.33 296.4 998.92 293.53C1009.95 291.01 1025.58 268.27 1029.28 262.68Z" fill="#E6E6E6"/>
<path d="M937.781 268.84C937.781 268.84 929.281 280.2 937.901 282.38C945.311 284.26 962.221 284.16 966.841 284.1C967.271 284.09 967.481 284.62 967.181 284.92L958.841 293.19C958.841 293.19 924.171 289.72 924.261 289.32C924.351 288.92 930.321 274.23 930.321 274.23L937.781 268.84Z" fill="#E6E6E6"/>
<path d="M975.55 211.52C975.55 211.52 979.7 213.99 979.01 220.24C978.32 226.49 978.74 236.5 969.26 236.14C969.26 236.14 969.64 244.02 969.41 244.13C969.19 244.24 963.13 251.95 963.13 251.95C963.13 251.95 960.09 250.94 959.08 250C958.07 249.06 950.36 241.46 949.79 239.95C949.22 238.44 952.86 233.23 952.86 233.23C952.86 233.23 956.01 230.57 955.65 225.41C955.65 225.41 949.14 221.9 952.7 217.21C954.49 214.85 960.36 218.3 960.04 222.18C960.04 222.18 962.54 221.82 963.12 217.21C963.12 217.2 974.25 221.37 975.55 211.52Z" fill="#A0616A"/>
<path d="M965.47 303.28H958.36V247.71C960.63 248.69 963.2 248.69 965.47 247.71V303.28Z" fill="#E6E6E6"/>
<path d="M975.11 218.82C975.11 218.82 976.86 218.03 977.26 219.48" stroke="#2F2E41" stroke-width="0.5" stroke-miterlimit="10" stroke-linecap="round"/>
<path d="M968.78 219.56C968.78 219.56 969.87 218.32 971.07 219.09" stroke="#2F2E41" stroke-width="0.5" stroke-miterlimit="10" stroke-linecap="round"/>
<path d="M974.371 221.14C974.371 221.14 973.791 223.64 975.111 225.73C975.111 225.73 975.101 227.02 973.631 227.25" stroke="#864B53" stroke-width="0.75" stroke-miterlimit="10" stroke-linecap="round"/>
<path d="M968.25 226.65C968.25 226.65 970.93 228.73 973.47 228.59C973.47 228.59 972.1 231.48 969.57 230.54C967.9 229.91 968.25 226.65 968.25 226.65Z" fill="#864B53"/>
<path d="M970.061 221.9C970.387 221.9 970.651 221.542 970.651 221.1C970.651 220.658 970.387 220.3 970.061 220.3C969.735 220.3 969.471 220.658 969.471 221.1C969.471 221.542 969.735 221.9 970.061 221.9Z" fill="#2F2E41"/>
<path d="M975.8 222.35C976.087 222.35 976.32 222.037 976.32 221.65C976.32 221.263 976.087 220.95 975.8 220.95C975.513 220.95 975.28 221.263 975.28 221.65C975.28 222.037 975.513 222.35 975.8 222.35Z" fill="#2F2E41"/>
<path d="M969.261 236.13C967.381 236 963.511 234.84 963.141 232.17C963.141 232.17 963.021 237.38 969.361 238.24C969.311 237.05 969.261 236.13 969.261 236.13Z" fill="#864B53"/>
<path d="M969.261 236.13C969.261 236.13 969.291 242.45 964.411 243.16C964.411 243.16 963.961 247.19 965.271 249.24C965.271 249.24 971.711 246.92 971.941 240.68C972.051 237.64 970.461 236.12 970.461 236.12C970.461 236.12 970.261 236.17 969.261 236.13Z" fill="white" stroke="#E6E6E6" stroke-width="0.5" stroke-miterlimit="10"/>
<path d="M952.87 233.22C952.87 233.22 949.86 232.65 947.57 238.8C947.57 238.8 947.43 248.62 958.99 250.23C958.99 250.23 960.98 245.32 960.79 242.68C960.79 242.68 948.81 240.05 952.87 233.22Z" fill="white" stroke="#E6E6E6" stroke-width="0.5" stroke-miterlimit="10"/>
<path d="M950.39 274.23H942.84C940.95 274.23 939.41 272.7 939.41 270.8V259.83H953.81V270.8C953.82 272.7 952.29 274.23 950.39 274.23Z" fill="white" stroke="#E6E6E6" stroke-width="0.5" stroke-miterlimit="10"/>
<path d="M953.821 259.83H939.421V262.67H953.821V259.83Z" fill="white" stroke="#E6E6E6" stroke-width="0.5" stroke-miterlimit="10"/>
<path d="M913.11 282.21H897.151C894.781 282.21 893.081 284.49 893.761 286.77L898.97 304.18H916.781L913.11 282.21Z" fill="#E6E6E6"/>
<path d="M933.941 238.35C927.361 240.22 905.251 278.42 906.781 289.88C908.301 301.27 921.051 309.47 968.021 297.33C968.481 297.21 968.791 296.75 968.701 296.28C968.311 294.02 967.341 287.74 967.881 284.69C967.931 284.38 967.681 284.11 967.371 284.14C962.831 284.58 936.051 286.98 932.711 282.56C929.061 277.73 937.781 268.83 937.781 268.83" fill="white"/>
<path d="M933.941 238.35C927.361 240.22 905.251 278.42 906.781 289.88C908.301 301.27 921.051 309.47 968.021 297.33C968.481 297.21 968.791 296.75 968.701 296.28C968.311 294.02 967.341 287.74 967.881 284.69C967.931 284.38 967.681 284.11 967.371 284.14C962.831 284.58 936.051 286.98 932.711 282.56C929.061 277.73 937.781 268.83 937.781 268.83" stroke="#E6E6E6" stroke-width="0.5" stroke-miterlimit="10" stroke-linecap="round"/>
<path d="M967.431 284.68C967.431 284.68 969.971 285.68 972.461 285.63C974.941 285.58 986.471 282.72 997.071 291.9C997.071 291.9 996.991 292.72 994.591 292.39C994.591 292.39 993.581 294.01 989.951 293.13C986.321 292.25 984.741 290.71 978.491 292.39C972.241 294.07 968.64 294.87 966.11 292.39C963.57 289.9 967.431 284.68 967.431 284.68Z" fill="#A0616A"/>
<path d="M973.2 292.17C969.16 293.14 966.13 289.81 966.13 289.81C966.13 289.81 965.76 290.29 965.33 290.91C965.44 291.45 965.67 291.96 966.11 292.38C968.64 294.86 972.24 294.07 978.49 292.38C984.74 290.69 986.32 292.23 989.95 293.12C991.06 293.39 991.93 293.43 992.59 293.34C990.07 293.4 988.67 291.07 984.38 290.56C980.08 290.06 977.24 291.2 973.2 292.17Z" fill="#864B53"/>
<path d="M967.38 284.14C966.52 284.22 964.85 284.38 962.7 284.54C962.19 288.15 961.72 294.04 963.11 298.54C964.71 298.16 966.34 297.76 968.02 297.32C968.48 297.2 968.78 296.74 968.7 296.27C968.31 294.01 967.34 287.72 967.88 284.68C967.94 284.38 967.69 284.11 967.38 284.14Z" fill="white" stroke="#E6E6E6" stroke-width="0.5" stroke-miterlimit="10"/>
<path d="M982.7 288.17C982.7 288.17 984.87 288.07 987.39 288.7C989.91 289.33 991.23 291.58 994.58 292.38" stroke="#864B53" stroke-width="0.75" stroke-miterlimit="10" stroke-linecap="round"/>
<path d="M1004.44 295.42H970.061V298.62H1004.44V295.42Z" fill="#21202F"/>
<path d="M1015.86 264.3H1037.88L1020.03 298.62H995.25L1015.86 264.3Z" fill="#21202F"/>
<path d="M1020.03 298.62L1036.47 267.03H1017.42L998.15 298.62H1020.03Z" fill="#2F2E41"/>
<path d="M1020.8 281.259C1021.17 280.503 1021 279.665 1020.42 279.386C1019.84 279.107 1019.08 279.493 1018.72 280.249C1018.35 281.005 1018.52 281.843 1019.1 282.122C1019.67 282.401 1020.44 282.015 1020.8 281.259Z" fill="white"/>
<path d="M1212.76 212.87C1212.76 212.87 1219.91 213.82 1217.06 227.45C1217.06 227.45 1220.51 228.31 1222 227.92C1222 227.92 1225.9 236.56 1235.36 231.1C1235.36 231.1 1244.15 231.04 1243.49 241.27L1260.16 238.14L1263.67 227.08C1263.67 227.08 1246.87 226.29 1240.87 219.19L1241.03 206.69L1215.2 197.78L1212.76 212.87Z" fill="#FFB8B8"/>
<path d="M1212.76 187.71C1205.78 190.29 1208.35 197.27 1209.3 200.4C1210.25 203.53 1209.52 206.81 1208.09 209.2C1206.66 211.59 1208.5 217.78 1215.19 214.12C1219.13 211.96 1215.85 205.47 1219.97 204.93C1224.09 204.39 1222.25 209.74 1226.74 210.16C1231.23 210.58 1232.74 210.17 1231.58 213.16C1231.58 213.16 1234.56 207.94 1237.13 209.22C1239.7 210.5 1240.36 212.79 1238.61 216.23C1238.61 216.23 1239.13 217.23 1240.87 219.19C1240.87 219.19 1244.06 219.2 1245.29 217.62C1245.29 217.62 1241.77 217.46 1241.6 215.57C1241.43 213.67 1245.19 211.18 1245.03 208.21C1244.87 205.24 1242.72 202.96 1242.63 200.5C1242.54 198.04 1243.94 194.59 1240.82 192.67C1237.7 190.75 1230.03 191.98 1228.23 192.39C1228.24 192.38 1221.98 184.29 1212.76 187.71Z" fill="#2F2E41"/>
<path d="M1218.39 214.89C1218.39 214.89 1219.26 212.85 1221.57 212.87" stroke="#2F2E41" stroke-width="0.5" stroke-miterlimit="10" stroke-linecap="round"/>
<path d="M1220.52 218.243C1220.84 218.11 1220.92 217.581 1220.7 217.062C1220.48 216.543 1220.05 216.23 1219.73 216.364C1219.42 216.497 1219.34 217.026 1219.56 217.544C1219.78 218.063 1220.21 218.376 1220.52 218.243Z" fill="#2F2E41"/>
<path d="M1217.78 278.93C1213.92 281.99 1209.36 285.22 1193.27 284.56C1177.18 283.9 1154.65 283 1139.01 294.06H1157.45C1157.45 294.06 1160.51 290.62 1168.46 292.38C1176.42 294.14 1184.38 299.03 1194.04 303.31C1203.7 307.59 1223.18 313.09 1236.08 305.22L1238.64 291.39L1217.78 278.93Z" fill="#FFB8B8"/>
<path d="M1260.57 225.64C1257.64 225.67 1257.27 227.51 1256.91 230.22C1256.56 232.93 1254.3 235.02 1248.78 236.33C1243.26 237.64 1236.26 244.78 1228.69 259.08C1221.12 273.38 1222.12 275.62 1217.77 278.93C1217.77 278.93 1232.63 294.41 1236.07 305.21C1236.07 305.21 1244.95 302.88 1249.52 298.36H1313.4C1313.41 298.37 1306.84 225.17 1260.57 225.64Z" fill="#F55681"/>
<path d="M1264.74 270.74C1264.74 270.74 1258.3 291.56 1248.26 298.58C1238.22 305.6 1280.47 302.57 1280.47 302.57C1280.47 302.57 1269.05 292.53 1263.68 291.77C1258.29 291.01 1267.2 279.45 1264.74 270.74Z" fill="#D44E72"/>
<path d="M1161.06 294.06H1115.58V298.58H1161.06V294.06Z" fill="#2F2E41"/>
<path d="M1096 256.897L1092.67 258.817L1115.63 298.575L1118.95 296.655L1096 256.897Z" fill="#2F2E41"/>
<path d="M268.17 196.17C268.17 196.17 262.48 193.72 238.28 198.26C214.08 202.8 212.35 214.7 216.77 220.59C218.62 223.05 224.79 222.5 224.79 222.5L273.47 240.79L282.75 220.6L283.32 213.3C283.32 213.3 286.98 212.72 286.25 209.37C285.51 206.01 283.93 209.38 281.97 203.34C280.01 197.3 268.17 196.17 268.17 196.17Z" fill="#F55681"/>
<path d="M266.94 199.25C260.18 199.13 255.76 195.13 245.53 198.3C235.3 201.47 237.64 206.44 241.99 206.73C246.34 207.02 248.51 205.76 253.96 207.41C259.41 209.06 277.98 211.01 277.98 211.01C277.98 211.01 279.14 209.37 278.77 205.8C278.41 202.24 272.2 199.35 266.94 199.25Z" fill="#D44E72"/>
<path d="M282.18 168.98C282.18 168.98 279.89 170.99 282.18 175.77C284.47 180.54 288.69 181.83 288.38 188.29C288.07 194.75 282.5 198.77 275.76 200.27C275.76 200.27 273.58 204.02 277.98 211.01C277.98 211.01 275.05 215.05 273.99 219.36C272.93 223.67 272.1 232.71 272.1 232.71C272.1 232.71 269.64 215.17 253.95 207.41C253.95 207.41 261.26 197.66 260.21 189.31C260.21 189.31 253.5 187.21 256.27 182.53C259.04 177.85 259.41 165.94 259.41 165.94L267.56 163.48H272.71L282.18 168.98Z" fill="#FFB8B8"/>
<path d="M270.731 145.2C278.781 144.82 281.541 148.72 282.461 155.43C283.381 162.14 284.471 170.75 292.101 171.1C292.101 171.1 282.141 174.89 276.531 168.48C270.921 162.07 254.111 167.79 263.371 182.79C263.371 182.79 260.221 180.62 257.851 181.45C255.621 182.23 255.621 184.63 255.621 184.63C255.621 184.63 244.321 176.52 246.681 167.92C247.901 163.47 252.251 163.29 255.991 163.58C255.991 163.58 254.441 160.08 246.481 160.74C246.481 160.74 254.321 157.6 257.411 162.86C257.411 162.86 255.951 159.01 257.851 156.84C257.851 156.84 256.711 160.76 258.041 162.17C258.041 162.17 260.781 145.68 270.731 145.2Z" fill="#2F2E41"/>
<path d="M271.05 200C271.05 200 272.49 202.74 275.23 203.15C275.2 201.25 275.76 200.27 275.76 200.27C273.51 200.85 271.05 200 271.05 200Z" fill="#FAA5A5"/>
<path d="M273.47 171.33C273.51 171.57 273.39 171.8 273.17 171.9C272.12 172.37 269.04 173.79 266.91 175.25C266.48 175.54 265.93 175.11 266.13 174.63C266.31 174.19 266.61 173.71 267.09 173.27C268.16 172.27 271.5 171.29 272.82 170.92C273.11 170.84 273.41 171.03 273.47 171.33Z" fill="#2F2E41"/>
<path d="M277.27 171.74C277.22 172.08 277.44 172.4 277.78 172.48C278.66 172.67 280.38 173.18 282.02 174.39C282.23 174.55 282.51 174.33 282.42 174.09C282.2 173.49 281.86 172.73 281.49 172.41C281.01 172 279.13 171.47 278.08 171.19C277.71 171.1 277.33 171.35 277.27 171.74Z" fill="#2F2E41"/>
<path d="M273.204 180.442C273.936 180.33 274.4 179.394 274.24 178.352C274.081 177.309 273.359 176.554 272.627 176.666C271.896 176.778 271.432 177.713 271.591 178.756C271.75 179.799 272.473 180.554 273.204 180.442Z" fill="#2F2E41"/>
<path d="M280.577 179.366C281.216 179.269 281.621 178.455 281.483 177.549C281.344 176.642 280.714 175.987 280.075 176.084C279.437 176.182 279.031 176.996 279.17 177.902C279.308 178.808 279.938 179.464 280.577 179.366Z" fill="#2F2E41"/>
<path d="M278.45 177.48C278.45 177.48 279.35 180.99 282.48 182.25C282.83 182.39 282.97 182.81 282.75 183.12C282.42 183.58 281.72 184.16 280.2 184.41" stroke="#FAA5A5" stroke-miterlimit="10" stroke-linecap="round"/>
<path d="M277.24 187.87C277.24 187.87 280.85 188.94 282.71 187.87C282.71 187.87 283.36 191.56 279.98 191.59C277.96 191.6 277.24 187.87 277.24 187.87Z" fill="#FAA5A5"/>
<path d="M291.48 292.23H239.28V298.58H291.48V292.23Z" fill="#E6E6E6"/>
<path d="M223.74 232.71C222.03 232.36 183.29 237.93 183.29 237.93L200.25 304.49L236.73 305.06L223.74 232.71Z" fill="#E0E0E0"/>
<path d="M325.78 265.71C325.78 265.71 311.43 268.3 299.32 273.19C293.47 275.56 288.14 278.46 285.2 281.87C283.79 283.51 281.34 285.6 278.12 287.85C277.04 288.61 275.87 289.39 274.62 290.17C274.61 290.18 274.6 290.18 274.6 290.18C273.08 291.14 271.45 292.1 269.73 293.05C250.27 303.85 219.22 313.17 206.18 290.73C188.24 259.85 221.71 225.22 224.8 222.51C227.88 219.81 234.54 214.08 245.82 215.16C264.76 216.95 272.1 235.13 272.1 235.13C275.37 212.88 283.32 213.32 283.32 213.32C320.66 230.04 325.78 265.71 325.78 265.71Z" fill="#F55681"/>
<path d="M286.25 276.33C285.64 275.55 284.93 274.81 284.02 274.42C283.09 274.03 282.04 274.05 281.03 274.08C277.06 274.19 272.32 274.77 270.53 278.32C269.27 280.83 270.05 283.91 269.13 286.56C267.73 290.59 263.06 292.29 258.96 293.48C251.2 295.72 243.39 297.98 235.35 298.73C231.61 299.08 227.78 299.09 224.18 298.04C216.95 295.94 211.44 289.67 208.79 282.62C206.14 275.57 206.03 267.81 206.84 260.32C207.31 255.94 208.08 251.6 209.15 247.33C209.6 245.52 210.1 243.72 210.66 241.94C210.9 241.17 211.85 239.34 212.28 237.97C203.49 251.5 195.2 271.81 206.19 290.72C219.23 313.16 250.28 303.84 269.74 293.04C271.46 292.09 273.09 291.13 274.61 290.17C274.61 290.17 274.62 290.17 274.63 290.16C275.88 289.38 277.05 288.6 278.13 287.84C281.35 285.59 283.8 283.5 285.21 281.86C286 280.94 286.98 280.06 288.09 279.21C287.56 278.2 286.96 277.23 286.25 276.33Z" fill="#D44E72"/>
<path d="M283.32 213.32C283.32 213.32 275.37 212.88 272.1 235.13C272.1 235.13 275.68 221.24 280.65 217.12C282.47 215.61 284.15 214.8 285.55 214.38C284.82 214.02 284.09 213.66 283.32 213.32Z" fill="#D44E72"/>
<path d="M245.82 215.16C234.54 214.08 227.88 219.81 224.8 222.51C224.46 222.81 223.74 223.51 222.76 224.54C250.74 205.82 272.1 235.13 272.1 235.13C272.1 235.13 264.76 216.95 245.82 215.16Z" fill="#D44E72"/>
<path d="M289.57 264.58L287.56 265.41L285.52 266.15L281.44 267.62C280.07 268.09 278.71 268.59 277.32 269.01L273.13 270.2C267.53 271.75 261.77 272.78 255.89 273.02C252.95 273.07 249.97 272.93 247.05 272.22C244.17 271.49 241.21 270.22 239.16 267.85C238.14 266.69 237.35 265.32 236.88 263.87C236.41 262.42 236.21 260.91 236.23 259.42C236.26 257.93 236.47 256.47 236.82 255.05C237.16 253.63 237.63 252.25 238.27 250.94C237.45 253.7 236.97 256.58 237.21 259.38C237.39 262.18 238.42 264.87 240.3 266.77C242.19 268.69 244.79 269.78 247.48 270.36C250.18 270.96 253.02 271.08 255.84 271C258.67 270.96 261.5 270.6 264.33 270.22C267.16 269.78 269.98 269.33 272.78 268.67L276.99 267.73C278.39 267.42 279.77 267.01 281.17 266.66C283.96 265.97 286.78 265.31 289.57 264.58Z" fill="#D44E72"/>
<path d="M299.32 273.19C293.47 275.56 288.14 278.46 285.2 281.87C283.79 283.51 281.34 285.6 278.12 287.85C277.04 288.61 275.87 289.39 274.62 290.17C274.61 290.18 274.6 290.18 274.6 290.18C271.7 284.07 271.31 271.16 271.3 270.68C273.34 270.21 275.65 269.45 277.93 268.82C281 267.98 284.1 266.41 287.63 265.24C288.45 266.19 289.2 267 289.57 267.19C290.6 267.7 298.11 270.27 299.15 272.07C299.3 272.31 299.35 272.7 299.32 273.19Z" fill="#FFB8B8"/>
<path d="M274.62 290.17C275.87 289.39 277.04 288.61 278.12 287.85C281.34 285.6 283.79 283.51 285.2 281.87C285.4 281.64 285.64 281.41 285.86 281.18C284.8 281.67 283.68 282.19 282.5 282.74C272.97 287.22 271.29 270.68 271.29 270.68C271.3 271.16 271.69 284.07 274.59 290.18C274.6 290.18 274.61 290.18 274.62 290.17Z" fill="#FAA5A5"/>
<path d="M183.29 237.93C190.93 237.44 193.16 242.82 196.9 257.01C200.64 271.2 205.94 300.85 205.94 300.85L189.56 301.71C189.56 301.71 180.72 264.53 178.27 252.52C175.81 240.51 179.21 238.19 183.29 237.93Z" fill="#E6E6E6"/>
<path d="M291.621 243.84H359.411C361.431 243.84 362.941 245.69 362.541 247.67L352.801 295.76C352.501 297.25 351.191 298.32 349.671 298.32H282.691C280.691 298.32 279.191 296.51 279.551 294.54L288.481 246.45C288.761 244.94 290.081 243.84 291.621 243.84Z" fill="white" stroke="#E6E6E6" stroke-miterlimit="10"/>
<path d="M364.32 289.45H360.37V281.54H364.32C366.5 281.54 368.27 283.31 368.27 285.49C368.28 287.68 366.51 289.45 364.32 289.45Z" fill="white" stroke="#E6E6E6" stroke-miterlimit="10"/>
<path d="M359.27 298.7H352.62C350.38 298.7 348.57 296.89 348.57 294.65V278.96C348.57 278.27 349.13 277.7 349.83 277.7H362.07C362.76 277.7 363.33 278.26 363.33 278.96V294.65C363.32 296.88 361.5 298.7 359.27 298.7Z" fill="white" stroke="#E6E6E6" stroke-miterlimit="10"/>
<path d="M357.691 274.6C355.881 272.86 354.381 270.66 353.871 268.13C353.291 265.6 354.301 262.85 356.091 261.02C357.841 259.12 360.111 257.79 362.421 256.74C364.721 255.66 367.131 254.81 369.201 253.48C370.221 252.81 371.181 252.02 371.771 250.99C371.951 250.75 372.071 250.48 372.171 250.2C372.261 249.92 372.441 249.67 372.471 249.37L372.651 248.49C372.721 248.2 372.681 247.93 372.681 247.66C372.611 247.12 372.351 246.63 372.001 246.2C371.611 245.79 371.161 245.41 370.631 245.11C369.601 244.49 368.431 244.04 367.251 243.64C364.881 242.84 362.421 242.22 360.001 241.37C358.791 240.94 357.591 240.45 356.451 239.78C355.331 239.11 354.231 238.18 353.671 236.84C353.121 235.49 353.391 234 353.891 232.79C354.111 232.16 354.501 231.59 354.881 231.02C355.341 230.53 355.771 230 356.301 229.62C358.361 227.96 360.751 226.93 363.151 226.07C367.981 224.41 372.981 223.38 377.991 222.62C388.021 221.11 398.151 220.42 408.261 220.28C403.211 220.55 398.161 220.91 393.131 221.43C388.101 221.92 383.081 222.53 378.111 223.39C373.151 224.27 368.181 225.27 363.461 226.94C361.121 227.79 358.801 228.83 356.921 230.37C356.421 230.73 356.061 231.2 355.651 231.63C355.341 232.12 355.011 232.59 354.811 233.17C354.371 234.27 354.191 235.47 354.611 236.49C355.031 237.52 355.941 238.33 356.971 238.96C358.011 239.58 359.161 240.06 360.331 240.49C362.681 241.33 365.141 241.96 367.551 242.8C368.761 243.22 369.961 243.69 371.101 244.38C371.671 244.71 372.201 245.15 372.671 245.65C373.111 246.19 373.471 246.85 373.551 247.58C373.621 249.03 373.191 250.29 372.491 251.45C371.791 252.62 370.711 253.46 369.621 254.14C367.401 255.5 364.981 256.3 362.681 257.33C360.381 258.32 358.171 259.58 356.451 261.37L356.121 261.7L355.841 262.07L355.271 262.8C355.111 263.06 354.971 263.34 354.821 263.61L354.601 264.02L354.451 264.46C354.001 265.61 353.911 266.89 354.131 268.11C354.551 270.54 355.951 272.79 357.691 274.6Z" fill="#E6E6E6"/>
<path d="M324.42 52.49C324.42 52.49 249.55 54.24 235.79 92.99C222.03 131.74 308.26 131.86 325.78 164.9C343.3 197.94 331.32 235.74 331.32 235.74" stroke="#E6E6E6" stroke-width="0.75" stroke-miterlimit="10" stroke-linecap="round" stroke-dasharray="12 12"/>
<path d="M352.32 52.72L349.55 61.98L367.55 64.68L361.26 53.29L352.32 52.72Z" fill="#E0E0E0"/>
<path d="M334.25 63.47L345.87 57.21L364.59 62.2L352.32 52.72L361.26 47.81L388.21 76.99L334.25 63.47Z" fill="#E6E6E6"/>
<path d="M413.84 239.81C414.81 239.91 428.03 246.11 428.87 247.32C429.71 248.53 416.87 249.38 416.82 248.76C416.77 248.14 413.84 239.81 413.84 239.81Z" fill="#E6E6E6"/>
<path d="M403.88 279.88C403.65 280.55 404.06 291.77 409.25 296.3C409.25 296.3 408.54 296.77 406.85 296.76C405.16 296.74 405.75 298.59 407.01 298.59C408.27 298.59 413.84 298.59 413.84 298.59C413.84 298.59 414.29 297.85 413.66 296.67C413.03 295.49 410.57 292.14 411.72 290.05C412.87 287.96 403.88 279.88 403.88 279.88Z" fill="#E6E6E6"/>
<path d="M437.4 292.54C437.4 292.54 437.22 295.19 435.75 296.43C434.28 297.66 433.11 297.06 433.17 298.1H438.41C438.41 298.1 441.25 294.66 442.14 290.87L437.4 292.54Z" fill="#E6E6E6"/>
<path d="M407.4 237.79C414.04 237.16 418.17 240.92 420.26 246.95C422.35 252.98 424.21 259.78 440.31 262.02C456.42 264.26 453.89 277.94 451.92 283.71C449.95 289.49 447.86 297.64 444.61 298.1H441.26C440.86 298.1 440.68 297.61 440.97 297.35C441.56 296.81 442.43 296.14 443.3 295.85C444.86 295.33 445.2 290.16 445.2 290.16C445.2 290.16 438.39 297.06 421.87 294.06C421.87 294.06 421.34 295.84 421.87 298.09H416.18C416.18 298.09 417.58 297.21 417.66 296.56C417.76 295.74 418.08 294.42 416.35 293.24C416.35 293.24 401.28 288.21 398.11 273.15C394.93 258.1 395.9 238.88 407.4 237.79Z" fill="white" stroke="#E6E6E6" stroke-miterlimit="10" stroke-linecap="round" stroke-linejoin="round"/>
<path d="M436.47 261.34C431.12 260.18 427.73 258.4 425.46 256.31C425 258.06 424.73 260.74 426.56 262.74C429.03 265.44 434.86 264.19 436.47 261.34Z" fill="#E6E6E6"/>
<path d="M451.02 273.73C451.02 273.73 456.1 272.15 455.17 263.18C454.24 254.21 454.53 235.26 467.36 227.87C480.2 220.48 487.21 232.66 478.68 239.12C470.15 245.59 464.79 243.57 461.08 252.63C457.37 261.69 464.56 273.07 451.49 279.37L451.02 273.73Z" fill="white" stroke="#E6E6E6" stroke-miterlimit="10" stroke-linecap="round" stroke-linejoin="round"/>
<path d="M476.82 225.7C478.7 227.36 480.39 230.04 480.2 234.29C480.14 235.54 480.08 236.62 480 237.58C484.06 233.07 482.18 226.99 476.82 225.7Z" fill="#E6E6E6"/>
<path d="M473.29 233.32C471.37 232.23 466.17 234.03 463.94 232.47C463.5 232.16 463.16 231.79 462.88 231.39C461.95 232.36 461.11 233.41 460.38 234.52C464.07 241.23 468.48 236.65 471.86 238.29C474.17 239.41 474.5 240.88 474.39 241.9C475.21 241.45 476.06 240.95 476.95 240.36C477.24 236.85 474.94 234.26 473.29 233.32Z" fill="#E6E6E6"/>
<path d="M456.5 243.36C456.1 244.84 455.78 246.33 455.54 247.82C456.85 249.33 458.51 249.34 461.06 249.01C461.96 248.9 462.61 248.88 463.09 248.93C463.96 247.73 464.91 246.86 465.96 246.14C463.71 244.49 460.31 245.04 458.51 244.64C457.6 244.44 456.99 243.96 456.5 243.36Z" fill="#E6E6E6"/>
<path d="M454.879 254.69C454.849 255.65 454.839 256.58 454.849 257.48C456.909 257.18 458.639 257.85 459.889 258.67C459.939 257.56 460.059 256.46 460.269 255.39C458.379 254.11 456.309 254.3 454.879 254.69Z" fill="#E6E6E6"/>
<path d="M454.22 277.78C455.49 276.89 456.48 275.92 457.25 274.9C458.65 268.81 456.29 265.94 455.27 265.03C455.3 266.92 455.04 268.42 454.62 269.59C455.89 272.88 455.02 275.98 454.22 277.78Z" fill="#E6E6E6"/>
<path d="M441.9 262.29C443.09 263.47 444.16 264.98 443.77 266.59C443 269.8 440.62 275 443.11 278.39C445.21 281.25 448.91 286.23 449.4 291.24C450.31 288.79 451.13 286.06 451.93 283.71C453.83 278.13 456.24 265.19 441.9 262.29Z" fill="#E6E6E6"/>
<path d="M413.05 243.07C413.05 244.47 411.91 245.61 409.78 245.61C407.65 245.61 406.65 244.47 406.65 243.07C406.65 241.67 407.64 240.53 409.78 240.53C411.92 240.53 413.05 241.67 413.05 243.07Z" fill="white" stroke="#E6E6E6" stroke-miterlimit="10" stroke-linecap="round" stroke-linejoin="round"/>
<path d="M403.33 242.69C403.33 243.88 402.36 244.85 400.54 244.85C398.72 244.85 397.88 243.88 397.88 242.69C397.88 241.5 398.72 240.53 400.54 240.53C402.36 240.53 403.33 241.5 403.33 242.69Z" fill="white" stroke="#E6E6E6" stroke-miterlimit="10" stroke-linecap="round" stroke-linejoin="round"/>
<path d="M406.65 243.07C406.65 243.79 406.92 244.44 407.46 244.9C408.45 244.52 409.15 243.57 409.15 242.45C409.15 241.78 408.89 241.18 408.48 240.71C407.24 241.08 406.65 241.99 406.65 243.07Z" fill="#E6E6E6"/>
<path d="M397.88 242.69C397.88 243.36 398.16 243.95 398.71 244.35C399.42 243.94 399.89 243.18 399.89 242.3C399.89 241.69 399.66 241.15 399.28 240.73C398.34 241.07 397.88 241.82 397.88 242.69Z" fill="#E6E6E6"/>
<path d="M403.729 244.64C404.489 244.66 404.959 245.03 404.959 245.6C404.959 246.17 403.659 246.57 403.659 246.57C403.659 246.57 402.729 246.35 402.729 245.29C402.729 244.5 403.729 244.64 403.729 244.64Z" fill="#E6E6E6"/>
<path d="M403.66 246.58C403.66 246.58 403.41 248.09 403.66 248.6" stroke="#E6E6E6" stroke-width="0.75" stroke-miterlimit="10" stroke-linecap="round"/>
<path d="M401.16 246.37L387.92 244.63" stroke="#E6E6E6" stroke-width="0.75" stroke-miterlimit="10" stroke-linecap="round"/>
<path d="M399.77 247.83C399.77 247.83 394.89 247.54 392.76 248.53" stroke="#E6E6E6" stroke-width="0.75" stroke-miterlimit="10" stroke-linecap="round"/>
<path d="M406.31 246.64C406.31 246.64 408.52 246.13 423.44 249.39" stroke="#E6E6E6" stroke-width="0.75" stroke-miterlimit="10" stroke-linecap="round"/>
<path d="M407.4 248.76C407.4 248.76 413.49 249.83 416.55 252.12" stroke="#E6E6E6" stroke-width="0.75" stroke-miterlimit="10" stroke-linecap="round"/>
<path d="M198.501 114.57C199.561 118.91 209.481 118.63 210.001 124.17C211.171 136.63 193.301 138.09 185.941 150.2C178.581 162.31 185.081 164.74 183.851 173.76C182.621 182.78 175.751 185.23 174.381 191.55C173.011 197.87 171.861 208.87 165.571 214.07C159.281 219.27 143.251 223.91 136.901 233.75C130.551 243.59 126.861 251.49 120.391 250.22C113.921 248.96 109.571 230.48 118.461 212.47C127.351 194.46 127.901 205.87 131.141 164.89C134.381 123.91 138.781 120.81 157.031 114.56C175.281 108.3 172.341 102.41 185.951 102.41C193.401 102.42 197.201 109.26 198.501 114.57Z" fill="#E0E0E0"/>
<path d="M47.5002 108.75C38.5302 111.97 35.2502 125.79 42.6602 138.43C50.0702 151.07 66.7302 164.42 67.3302 180.94C67.9302 197.46 65.5602 216.43 77.8602 225.12C90.1602 233.81 86.6502 231.05 89.4102 237.48C92.1702 243.91 104.01 253.9 110.98 253.33C117.95 252.76 123 237.81 120.47 223.05C117.94 208.29 108.41 200.38 107.62 189.3C106.83 178.22 109.11 168.58 104.31 158.88C99.5002 149.18 94.1402 152.18 89.5002 144.11C84.8602 136.05 80.6402 96.87 47.5002 108.75Z" fill="#E6E6E6"/>
<path d="M164.2 221.92C170.62 221.68 170.54 232.79 168.82 240.02C167.1 247.26 163.41 252.27 153.44 254.91C143.46 257.55 141.77 274.14 129.22 269.6C116.67 265.06 127.62 242.72 132.26 238.24C136.9 233.76 145.96 234.77 150.79 230.56C155.62 226.35 157.91 222.16 164.2 221.92Z" fill="#E6E6E6"/>
<path d="M55.5 121.47C55.5 121.47 110.85 184.65 112.5 281.86" stroke="#E0E0E0" stroke-miterlimit="10" stroke-linecap="round"/>
<path d="M189.14 117.46C189.14 117.46 130.84 169.29 113.03 284.41" stroke="#E6E6E6" stroke-miterlimit="10" stroke-linecap="round"/>
<path d="M154.03 244.87C154.03 244.87 126.35 250.07 111.01 284.41" stroke="#E0E0E0" stroke-miterlimit="10" stroke-linecap="round"/>
<path d="M41.6602 123.56C46.6902 123.07 51.8802 124.31 56.1402 127.04" stroke="#E0E0E0" stroke-miterlimit="10" stroke-linecap="round"/>
<path d="M43.9502 130.88C50.1702 129.56 56.8702 130.65 62.3502 133.87" stroke="#E0E0E0" stroke-miterlimit="10" stroke-linecap="round"/>
<path d="M47.71 139.79C54.6 140.88 61.6 141.25 68.56 140.88" stroke="#E0E0E0" stroke-miterlimit="10" stroke-linecap="round"/>
<path d="M50.5498 144.55C56.4398 145.5 62.4398 145.73 68.3798 145.22" stroke="#E0E0E0" stroke-miterlimit="10" stroke-linecap="round"/>
<path d="M57.1006 150.92C63.1606 151.07 69.2306 150.45 75.1306 149.05" stroke="#E0E0E0" stroke-miterlimit="10" stroke-linecap="round"/>
<path d="M68.33 113.64C66.54 118.05 64.75 122.45 62.96 126.86" stroke="#E0E0E0" stroke-miterlimit="10" stroke-linecap="round"/>
<path d="M72.4099 117.86C70.3399 122.54 68.3299 127.25 66.3799 131.98" stroke="#E0E0E0" stroke-miterlimit="10" stroke-linecap="round"/>
<path d="M76.0201 119.14C73.5501 124.71 71.0901 130.28 68.6201 135.85" stroke="#E0E0E0" stroke-miterlimit="10" stroke-linecap="round"/>
<path d="M79.4101 124.14C75.9301 129.27 73.1201 134.85 71.0801 140.7" stroke="#E0E0E0" stroke-miterlimit="10" stroke-linecap="round"/>
<path d="M81.2401 131.13C78.7601 136.44 76.1401 141.68 73.3701 146.84" stroke="#E0E0E0" stroke-miterlimit="10" stroke-linecap="round"/>
<path d="M84.2102 131.71C81.1902 137.86 78.1802 144.01 75.1602 150.16" stroke="#E0E0E0" stroke-miterlimit="10" stroke-linecap="round"/>
<path d="M156 118.62C154.61 128.01 154.15 137.55 154.65 147.03" stroke="#E6E6E6" stroke-miterlimit="10" stroke-linecap="round"/>
<path d="M158.59 118.35C157.67 127.47 159.16 136.83 162.89 145.22" stroke="#E6E6E6" stroke-miterlimit="10" stroke-linecap="round"/>
<path d="M161.37 115.19C161.33 122.22 164.93 128.82 165.46 135.83" stroke="#E6E6E6" stroke-miterlimit="10" stroke-linecap="round"/>
<path d="M165.12 148.94C174.83 146.34 184.41 143.25 193.98 140.17" stroke="#E6E6E6" stroke-miterlimit="10" stroke-linecap="round"/>
<path d="M160.521 156.14C166.761 153.79 173.05 151.54 179.37 149.41" stroke="#E6E6E6" stroke-miterlimit="10" stroke-linecap="round"/>
<path d="M159.33 160.33C163.58 159.21 167.82 158.09 172.07 156.96C175.86 155.96 179.68 154.95 183.2 153.22" stroke="#E6E6E6" stroke-miterlimit="10" stroke-linecap="round"/>
<path d="M146.421 233.37C145.281 237.74 144.351 242.16 143.641 246.62" stroke="#E0E0E0" stroke-miterlimit="10" stroke-linecap="round"/>
<path d="M150.58 233.46C149.95 234.59 149.58 235.83 149.23 237.07C148.5 239.64 147.87 242.24 147.34 244.86" stroke="#E0E0E0" stroke-miterlimit="10" stroke-linecap="round"/>
<path d="M152.21 231.07C152.3 235.69 151.62 240.33 150.19 244.72" stroke="#E0E0E0" stroke-miterlimit="10" stroke-linecap="round"/>
<path d="M155.77 229.83C155.45 231.81 155.12 233.8 154.8 235.78C154.46 237.89 154.1 240.04 153.17 241.96" stroke="#E0E0E0" stroke-miterlimit="10" stroke-linecap="round"/>
<path d="M153.271 246.23C156.681 245.95 160.161 246.45 163.361 247.67" stroke="#E0E0E0" stroke-miterlimit="10" stroke-linecap="round"/>
<path d="M149.46 246.84C152.1 247.99 154.73 249.15 157.37 250.3C157.93 250.55 158.5 250.79 158.97 251.18" stroke="#E0E0E0" stroke-miterlimit="10" stroke-linecap="round"/>
<path d="M145.86 249.01C149.71 250.24 153.76 250.87 157.8 250.88" stroke="#E0E0E0" stroke-miterlimit="10" stroke-linecap="round"/>
<path d="M167.87 113.31C167.71 120.47 167.82 127.63 168.19 134.78" stroke="#E6E6E6" stroke-miterlimit="10" stroke-linecap="round"/>
<path d="M170.88 112.82C171.7 119.26 172.85 125.65 174.3 131.97" stroke="#E6E6E6" stroke-miterlimit="10" stroke-linecap="round"/>
<path d="M175.86 107.88C175.73 110.8 175.6 113.76 176.2 116.62C176.83 119.62 178.23 122.42 178.81 125.44" stroke="#E6E6E6" stroke-miterlimit="10" stroke-linecap="round"/>
<path d="M180.701 105.73C180.631 110.85 181.011 115.97 181.831 121.02" stroke="#E6E6E6" stroke-miterlimit="10" stroke-linecap="round"/>
<path d="M181.87 127.79C189.84 128.07 197.83 127.77 205.75 126.91" stroke="#E6E6E6" stroke-miterlimit="10" stroke-linecap="round"/>
<path d="M179.34 132.11C187.09 132.22 194.84 132.17 202.58 131.95" stroke="#E6E6E6" stroke-miterlimit="10" stroke-linecap="round"/>
<path d="M173.03 140.76C179.45 139.82 185.88 138.89 192.3 137.95C194.07 137.69 195.91 137.41 197.4 136.41" stroke="#E6E6E6" stroke-miterlimit="10" stroke-linecap="round"/>
<path d="M101.24 278.53H130.9C132.78 278.53 134.18 280.28 133.75 282.12L130.48 296.31C130.17 297.64 128.99 298.58 127.63 298.58H105.27C103.96 298.58 102.81 297.71 102.45 296.45L98.4303 282.26C97.8903 280.39 99.2903 278.53 101.24 278.53Z" fill="#2F2E41"/>
<path d="M1084 232.42C1084 232.42 1075.42 259.8 1070.73 265.74" stroke="#E6E6E6" stroke-miterlimit="10" stroke-linecap="round"/>
<path d="M1060.75 237.03C1061.17 238.7 1065.49 260.05 1068.77 267.25" stroke="#E6E6E6" stroke-miterlimit="10" stroke-linecap="round"/>
<path d="M1073.29 227.77C1073.29 227.77 1067.86 257.15 1067.86 269.27" stroke="#E6E6E6" stroke-miterlimit="10" stroke-linecap="round"/>
<path d="M1058.16 240.23C1058.2 240.3 1058.27 240.34 1058.34 240.38C1059.3 240.95 1060.41 241.26 1061.52 241.28" stroke="#E6E6E6" stroke-miterlimit="10" stroke-linecap="round"/>
<path d="M1063.35 240.92C1063.35 240.92 1062.51 242.15 1062.76 243.7" stroke="#E6E6E6" stroke-miterlimit="10" stroke-linecap="round"/>
<path d="M1060.63 245.69C1060.63 245.69 1061.92 246.11 1062.57 247.12" stroke="#E6E6E6" stroke-miterlimit="10" stroke-linecap="round"/>
<path d="M1063 252.3C1063 252.3 1064.12 254.24 1064.75 254.84" stroke="#E6E6E6" stroke-miterlimit="10" stroke-linecap="round"/>
<path d="M1064.95 246.91C1064.95 246.91 1064.1 247.9 1064.01 249.45" stroke="#E6E6E6" stroke-miterlimit="10" stroke-linecap="round"/>
<path d="M1066.52 256.08C1066.52 256.08 1066.73 258.22 1066.08 259.28" stroke="#E6E6E6" stroke-miterlimit="10" stroke-linecap="round"/>
<path d="M1065.18 260.47C1065.18 260.47 1065.87 260.72 1066.39 261.79" stroke="#E6E6E6" stroke-miterlimit="10" stroke-linecap="round"/>
<path d="M1071.87 256.21C1071.87 256.21 1069.94 259.36 1068.76 259.55" stroke="#E6E6E6" stroke-miterlimit="10" stroke-linecap="round"/>
<path d="M1068.76 250.86C1068.76 250.86 1069.47 251.59 1069.27 253.17" stroke="#E6E6E6" stroke-miterlimit="10" stroke-linecap="round"/>
<path d="M1072.99 245.56C1072.99 245.56 1071.59 248.53 1070.58 249.08" stroke="#E6E6E6" stroke-miterlimit="10" stroke-linecap="round"/>
<path d="M1069.27 239.1C1069.27 239.1 1070.69 239.75 1070.86 242.18" stroke="#E6E6E6" stroke-miterlimit="10" stroke-linecap="round"/>
<path d="M1073.17 237.02C1073.17 237.02 1072.25 239.3 1071.29 239.46" stroke="#E6E6E6" stroke-miterlimit="10" stroke-linecap="round"/>
<path d="M1069.97 233.43C1069.97 233.43 1071.59 234.93 1071.73 236.72" stroke="#E6E6E6" stroke-miterlimit="10" stroke-linecap="round"/>
<path d="M1074.47 228.94C1074.47 228.94 1074.28 231.33 1072.57 231.83" stroke="#E6E6E6" stroke-miterlimit="10" stroke-linecap="round"/>
<path d="M1080.08 237.25C1080.08 237.25 1079.83 240.18 1080.91 241.79" stroke="#E6E6E6" stroke-miterlimit="10" stroke-linecap="round"/>
<path d="M1077.56 243.69C1077.56 243.69 1078.43 246.59 1078.11 249.64" stroke="#E6E6E6" stroke-miterlimit="10" stroke-linecap="round"/>
<path d="M1075.28 251.28C1075.28 251.28 1075.57 254.58 1075.05 256.33" stroke="#E6E6E6" stroke-miterlimit="10" stroke-linecap="round"/>
<path d="M1073.39 257.97C1073.39 257.97 1074.29 258.74 1073.89 260.06" stroke="#E6E6E6" stroke-miterlimit="10" stroke-linecap="round"/>
<path d="M1077.69 256.09C1077.69 256.09 1075.72 256.44 1074.86 257.87" stroke="#E6E6E6" stroke-miterlimit="10" stroke-linecap="round"/>
<path d="M1081.22 249C1081.22 249 1079.1 251.43 1077.37 251.6" stroke="#E6E6E6" stroke-miterlimit="10" stroke-linecap="round"/>
<path d="M1082.47 243.82C1082.47 243.82 1080.62 244.92 1079.89 244.64" stroke="#E6E6E6" stroke-miterlimit="10" stroke-linecap="round"/>
<path d="M1076.93 298.58H1064.01C1062.9 298.58 1062.01 297.68 1062.01 296.58V265.02C1062.01 263.91 1062.91 263.02 1064.01 263.02H1076.93C1078.04 263.02 1078.93 263.92 1078.93 265.02V296.58C1078.94 297.68 1078.04 298.58 1076.93 298.58Z" fill="white" stroke="#E6E6E6" stroke-miterlimit="10"/>
<path d="M1073.98 263.01H1066.97V298.57H1073.98V263.01Z" fill="white" stroke="#E6E6E6" stroke-miterlimit="10"/>
<path d="M1091.23 286.72H1091.2V278.81H1089.3V286.72H1089.27C1088.17 286.72 1087.28 287.61 1087.28 288.71V298.58H1089.3H1091.2H1093.22V288.71C1093.22 287.61 1092.33 286.72 1091.23 286.72Z" fill="white" stroke="#E6E6E6" stroke-miterlimit="10" stroke-linejoin="round"/>
<path d="M1104.32 298.58H1102.28C1102.01 298.58 1101.78 298.36 1101.78 298.08V288.4C1101.78 288.13 1102 287.9 1102.28 287.9H1104.32C1104.59 287.9 1104.82 288.12 1104.82 288.4V298.08C1104.82 298.36 1104.6 298.58 1104.32 298.58Z" fill="white" stroke="#E6E6E6" stroke-miterlimit="10"/>
<path d="M1361.7 316.77H63.47C62.52 316.77 61.75 316 61.75 315.05V300.3C61.75 299.35 62.52 298.58 63.47 298.58H1361.7C1362.65 298.58 1363.42 299.35 1363.42 300.3V315.04C1363.43 316 1362.65 316.77 1361.7 316.77Z" fill="white" stroke="#E6E6E6" stroke-miterlimit="10"/>
<path d="M795.021 147.67C795.021 147.67 797.191 152.48 795.021 153.77C792.851 155.06 791.021 156.12 790.641 155.32C790.261 154.52 789.131 150.3 789.131 150.3L791.331 148.62L795.021 147.67Z" fill="#2F2E41"/>
<path d="M797.94 163.88C797.94 163.88 794.74 162.87 790.16 164.34C785.58 165.81 798.99 174.57 798.99 174.57C798.99 174.57 800.92 170.47 800.55 169.02C800.18 167.57 797.94 163.88 797.94 163.88Z" fill="#D44E72"/>
<path d="M867.06 128.54C863.78 129.49 843.35 136.56 837.67 123.69C837.67 123.69 780.02 209.55 747.75 225.04L800.05 242.19L852.36 168.04L867.06 128.54Z" fill="#E6E6E6"/>
<path d="M802.661 171.73L827.181 181.86L836.641 197.29L835.301 236.46L831.061 246.46L788.031 237.14C788.031 237.14 770.391 248.1 754.351 242.54C738.311 236.98 744.791 190.75 752.101 183.93C759.411 177.11 770.681 171.94 773.001 171.74H802.661V171.73Z" fill="#F55681"/>
<path d="M762.541 191.54C762.031 193.04 761.751 194.58 761.401 196.11C761.091 197.64 760.781 199.18 760.491 200.72C759.891 203.8 759.351 206.89 758.561 209.97C758.571 208.38 758.641 206.8 758.821 205.23C758.981 203.66 759.221 202.09 759.511 200.53C759.821 198.98 760.181 197.43 760.651 195.91C761.131 194.4 761.681 192.88 762.541 191.54Z" fill="#D44E72"/>
<path d="M783.83 186.71C783.83 186.71 781.08 199.47 780.46 213.64C779.85 227.81 779.24 232.83 777.75 233.21" stroke="white" stroke-miterlimit="10" stroke-linecap="round"/>
<path d="M785.561 232.14C785.561 232.14 784.371 227.36 760.561 229.67V232.14L767.271 231.62C767.271 231.62 764.351 234.95 763.151 237.82C761.951 240.69 764.381 241.82 764.381 241.82C764.381 241.82 769.621 240.68 770.191 238.13C770.191 238.13 776.091 242.83 783.521 242.8L785.561 232.14Z" fill="#FFB8B8"/>
<path d="M769.31 233.41C769.31 233.41 764.38 236.35 762.54 241.55" stroke="#FAA5A5" stroke-width="0.5" stroke-miterlimit="10" stroke-linecap="round"/>
<path d="M768.861 235.79C768.861 235.79 765.731 238.65 763.641 242.18" stroke="#FAA5A5" stroke-width="0.5" stroke-miterlimit="10" stroke-linecap="round"/>
<path d="M697.721 196.73H758.901C760.191 196.73 761.271 197.7 761.401 198.99L766.561 248.34C766.721 249.83 765.551 251.12 764.061 251.12H704.371C703.111 251.12 702.041 250.19 701.871 248.94L695.221 199.59C695.021 198.07 696.191 196.73 697.721 196.73Z" fill="#2F2E41"/>
<path d="M872.92 125.83C872.92 125.83 826.68 255.74 791.33 295.68C755.98 335.62 717.34 337.77 649.88 309.6C582.42 281.43 336.44 145.94 336.44 145.94C336.44 145.94 342.6 144.65 340.87 138.2C340.87 138.2 688.77 239.17 744.89 246.76C818.51 256.71 867.07 128.54 867.07 128.54C867.07 128.54 870.35 127.68 872.92 125.83Z" fill="white" stroke="#E6E6E6" stroke-miterlimit="10"/>
<path d="M818.991 215.34C816.511 221.11 813.391 226.61 809.881 231.83C806.391 237.08 802.421 242.01 798.081 246.6C795.871 248.86 793.581 251.04 791.171 253.1C788.731 255.12 786.211 257.03 783.551 258.75C780.891 260.47 778.091 261.96 775.221 263.27C772.311 264.49 769.321 265.54 766.261 266.24C769.191 265.11 772.061 263.89 774.791 262.39C777.521 260.89 780.151 259.25 782.681 257.46C787.711 253.84 792.361 249.7 796.651 245.22C800.941 240.74 804.911 235.94 808.621 230.93C812.291 225.92 815.821 220.76 818.991 215.34Z" fill="#E6E6E6"/>
<path d="M825.131 217.62C823.531 220.81 821.821 223.94 820.021 227.03C818.241 230.12 816.401 233.18 814.491 236.2C810.641 242.21 806.561 248.09 802.211 253.77C797.841 259.44 793.121 264.84 788.081 269.95C782.961 274.98 777.491 279.69 771.481 283.7C765.251 287.6 757.981 289.57 750.751 289.9C747.131 290.1 743.511 289.99 739.931 289.57C736.351 289.17 732.791 288.55 729.311 287.68C715.361 284.24 702.141 278.33 690.011 270.85C696.261 274.27 702.731 277.29 709.361 279.87C715.961 282.5 722.741 284.68 729.661 286.18C736.571 287.61 743.641 288.58 750.651 288.09C757.651 287.72 764.551 285.74 770.411 282.02C776.301 278.16 781.721 273.58 786.811 268.66C791.851 263.68 796.491 258.3 801.021 252.82C805.491 247.29 809.681 241.54 813.691 235.66C817.721 229.8 821.531 223.78 825.131 217.62Z" fill="#E6E6E6"/>
<path d="M784.861 235.74C783.591 235.61 782.311 235.65 781.231 235.64C780.631 235.64 780.021 235.64 779.451 235.8C778.861 235.97 778.321 236.3 777.801 236.62C776.581 237.38 775.281 238.23 774.791 239.58C774.661 239.95 774.601 240.33 774.601 240.71C776.951 241.79 780.061 242.8 783.511 242.79L784.861 235.74Z" fill="#FFB8B8"/>
<path d="M784.021 233.21C784.541 230.89 785.56 229.87 785.56 229.87C785.56 229.87 810.16 229.1 814.56 229.78C814.56 229.78 820.52 196.73 827.17 189.1L843.82 208.49L831.22 245.28L807.82 239.94" fill="#F55681"/>
<path d="M833.85 248.85C828.65 250.94 816.34 249.73 805.15 247.82C804.33 247.68 803.5 247.53 802.69 247.38C793.29 245.67 785.16 243.6 783.51 242.8C783.51 242.8 783.13 237.16 784.02 233.21C784.02 233.21 788.1 232.47 797.49 235.27C806.89 238.08 824.8 245.03 830.81 241.82C836.82 238.61 828.64 229.27 825.02 223.2C821.41 217.14 821.79 208.1 825.77 205.23C829.74 202.36 832.2 196.8 830.72 195.16C829.24 193.52 822.45 198.89 821.6 203.52C821.6 203.52 822.2 193.64 827.17 189.1C827.17 189.1 827.45 176.52 798.85 178.52L803.77 168.03C803.77 168.03 825.85 175.62 838.47 191.07C851.09 206.53 843.9 244.81 833.85 248.85Z" fill="#D44E72"/>
<path d="M793.21 149.04C793.21 149.04 791.65 152.78 793.21 157.66C794.77 162.54 797.2 166.11 798.79 167.43C798.79 167.43 795.44 183.25 786.45 183.8C777.45 184.35 775.11 174.63 775.68 163.26C776.25 151.9 793.21 149.04 793.21 149.04Z" fill="#FAA5A5"/>
<path d="M765.4 137.68C765.4 137.68 767.5 140.14 766.67 148.05C765.83 155.96 765.77 162.17 773.28 164.35C780.8 166.53 788.14 161.99 791.6 151.02C791.6 151.02 795.52 150.09 798.11 147.91C800.7 145.73 800.8 141.8 798.14 139.88C795.49 137.96 785.92 130.71 785.92 130.71L771 130.47L765.4 137.68Z" fill="#FFB8B8"/>
<path d="M769.55 121.74C769.55 121.74 767.99 115.69 774.16 114.58C780.32 113.47 783.63 117.8 783.63 117.8C783.63 117.8 789.9 112.69 793.96 116.76C798.1 120.91 793.49 125.84 793.49 125.84C793.49 125.84 802.47 123.05 802.66 129.67C802.79 134.51 798.1 135.87 798.1 135.87C798.1 135.87 799.89 138.06 798.13 139.88C798.13 139.88 796.36 138.34 793.78 139.95C791.21 141.56 790.15 145.87 790.15 145.87C790.15 145.87 789.25 139.51 786.89 137.07C786.89 137.07 784.36 138.87 781.96 137.49C779.56 136.11 779.02 133.81 779.02 133.81C779.02 133.81 776.27 136.29 774.01 134.09C774.01 134.09 771.49 137.15 768.99 135.54C768.99 135.54 768.85 137.68 766.82 137.68C766.82 137.68 766.77 141.89 762.72 140.59C760.71 139.94 761.02 137.68 761.02 137.68C761.02 137.68 755.58 136.62 757.17 131.62C758.35 127.92 763.37 128.78 763.37 128.78C763.37 128.78 760.86 124.72 763.42 122.01C765.97 119.29 769.55 121.74 769.55 121.74Z" fill="#2F2E41"/>
<path d="M791.851 146.69C791.851 146.69 792.981 143.11 795.701 142.45" stroke="#FAA5A5" stroke-miterlimit="10" stroke-linecap="round"/>
<path d="M792.44 145.35C792.44 145.35 794.94 144.43 795.38 145.32" stroke="#FAA5A5" stroke-miterlimit="10" stroke-linecap="round"/>
<path d="M778.01 150.06C781.037 150.06 783.49 147.253 783.49 143.79C783.49 140.327 781.037 137.52 778.01 137.52C774.984 137.52 772.53 140.327 772.53 143.79C772.53 147.253 774.984 150.06 778.01 150.06Z" stroke="#F55681" stroke-width="0.75" stroke-miterlimit="10" stroke-linecap="round"/>
<path d="M768.642 150.788C770.498 150.498 771.622 147.838 771.155 144.848C770.687 141.858 768.804 139.669 766.949 139.959C765.094 140.249 763.969 142.909 764.437 145.899C764.904 148.889 766.787 151.078 768.642 150.788Z" stroke="#F55681" stroke-width="0.75" stroke-miterlimit="10" stroke-linecap="round"/>
<path d="M785.68 183.93L782.72 183.83C782.72 183.83 773.53 190.59 772.86 192.29C772.86 192.29 772.43 181.45 769.28 173.09L778 181.68L783.86 181.52L789.81 181.87L805.43 168.32C805.43 168.32 803.11 187.18 791.96 193.24C791.97 193.24 791.2 188.64 785.68 183.93Z" fill="#D44E72"/>
<path d="M797.94 163.88C797.94 163.88 796.84 181.32 783.87 181.52C783.87 181.52 790.68 186.23 792.32 191.53C792.32 191.53 802.14 185.46 805.44 168.31C805.44 168.32 801.25 164.7 797.94 163.88Z" fill="#F55681"/>
<path d="M775.61 167.7C775.61 167.7 771.61 168.86 769.29 173.09C769.29 173.09 773.35 184.4 773.28 189.5C773.28 189.5 779.46 183.31 783.87 181.52C783.87 181.52 778.81 181.95 776.82 175.16C775.44 170.45 775.61 167.7 775.61 167.7Z" fill="#F55681"/>
<path d="M784.021 233.21C784.131 232.6 784.291 232 784.521 231.41C784.761 230.83 785.041 230.27 785.461 229.77L785.49 229.73H785.55C787.97 229.57 790.38 229.45 792.8 229.35C795.22 229.25 797.63 229.14 800.05 229.1C802.47 229.05 804.89 229.01 807.31 229.01C809.74 229.01 812.14 229.02 814.62 229.3L814.091 229.69C814.421 227.79 814.771 225.9 815.141 224.02C815.501 222.13 815.94 220.26 816.38 218.38C816.84 216.51 817.29 214.64 817.86 212.8C818.45 210.97 819.01 209.11 819.98 207.44C819.18 209.19 818.72 211.05 818.26 212.91C817.83 214.78 817.41 216.65 817.04 218.53L815.99 224.18C815.64 226.06 815.32 227.96 815.01 229.85L814.94 230.29L814.48 230.24C812.16 230 809.7 230.04 807.3 229.99C804.89 229.96 802.47 229.97 800.05 229.99L792.8 230.01C790.38 230.03 787.96 230.03 785.55 230.01L785.641 229.97C785.241 230.39 784.911 230.93 784.651 231.48C784.391 232.03 784.181 232.62 784.021 233.21Z" fill="#D44E72"/>
<path d="M825.131 237.04C824.251 236.41 823.401 235.74 822.531 235.11C821.671 234.47 820.801 233.84 819.931 233.22C819.051 232.61 818.161 232.03 817.261 231.49C816.811 231.23 816.341 230.98 815.881 230.76C815.441 230.54 814.891 230.33 814.541 230.26L811.891 229.78L814.461 229.31C815.301 229.15 816.051 229.21 816.821 229.31C817.581 229.41 818.321 229.62 819.031 229.87C819.741 230.14 820.421 230.45 821.061 230.85C821.701 231.24 822.311 231.67 822.871 232.15C822.201 231.82 821.561 231.48 820.881 231.22C820.201 230.96 819.521 230.71 818.821 230.54C818.131 230.36 817.421 230.24 816.721 230.18C816.031 230.12 815.281 230.14 814.681 230.26L814.601 229.31C815.311 229.42 815.771 229.64 816.301 229.87C816.811 230.1 817.291 230.38 817.761 230.66C818.711 231.23 819.581 231.88 820.441 232.55C822.141 233.9 823.691 235.42 825.131 237.04Z" fill="#D44E72"/>
<path d="M767.79 138.3C767.79 138.3 768.96 138.21 769.32 139.11" stroke="#2F2E41" stroke-miterlimit="10" stroke-linecap="round"/>
<path d="M773.83 137.26C773.83 137.26 774.45 136.92 775.31 136.77" stroke="#2F2E41" stroke-miterlimit="10" stroke-linecap="round"/>
<path d="M776.211 142.58C776.211 142.58 776.291 143.59 776.651 144" stroke="#2F2E41" stroke-miterlimit="10" stroke-linecap="round"/>
<path d="M768.551 144.35C768.551 144.35 768.611 145.27 768.911 145.71" stroke="#2F2E41" stroke-miterlimit="10" stroke-linecap="round"/>
<path d="M771.57 145.26C771.57 145.26 769.14 150.35 769.47 151.39C769.8 152.43 772.52 152.78 772.52 152.78" fill="#FFB8B8"/>
<path d="M771.57 145.26C771.57 145.26 769.14 150.35 769.47 151.39C769.8 152.43 772.52 152.78 772.52 152.78" stroke="#FAA5A5" stroke-miterlimit="10" stroke-linecap="round"/>
<path d="M776.021 155.32C776.021 155.32 775.141 157.15 773.091 157.27" stroke="#FAA5A5" stroke-miterlimit="10" stroke-linecap="round"/>
<path d="M783.11 141.49C783.11 141.49 789.6 140.65 792.97 140.6" stroke="#F55681" stroke-width="0.75" stroke-miterlimit="10" stroke-linecap="round"/>
<path d="M784.54 202.94C785.17 202.94 785.68 202.43 785.68 201.8C785.68 201.17 785.17 200.66 784.54 200.66C783.911 200.66 783.4 201.17 783.4 201.8C783.4 202.43 783.911 202.94 784.54 202.94Z" fill="white"/>
<path d="M782.72 217.62C783.35 217.62 783.86 217.11 783.86 216.48C783.86 215.85 783.35 215.34 782.72 215.34C782.09 215.34 781.58 215.85 781.58 216.48C781.58 217.11 782.09 217.62 782.72 217.62Z" fill="white"/>
<path d="M781.771 230.41C782.4 230.41 782.911 229.9 782.911 229.27C782.911 228.64 782.4 228.13 781.771 228.13C781.141 228.13 780.631 228.64 780.631 229.27C780.631 229.9 781.141 230.41 781.771 230.41Z" fill="white"/>
<path d="M336.43 145.95L269.23 113.64L340.86 138.2" stroke="#E6E6E6" stroke-miterlimit="10"/>
<path d="M872.92 125.83L898.67 48.48" stroke="#E6E6E6" stroke-miterlimit="10"/>
<path d="M837.67 123.69L872.92 53.03" stroke="#E6E6E6" stroke-miterlimit="10"/>
</svg>
