<svg width="64" height="64" viewBox="0 0 64 64" fill="none" xmlns="http://www.w3.org/2000/svg">
<path d="M7.00977 18.13C9.49977 13.83 22.1698 16.49 35.3298 24.09C48.4798 31.68 57.1298 41.33 54.6498 45.63" stroke="#2F2E41" stroke-width="2" stroke-miterlimit="10" stroke-linecap="round" stroke-linejoin="round"/>
<path d="M30.8203 59.38C25.8503 59.38 21.8203 47.07 21.8203 31.88C21.8203 16.69 25.8503 4.38 30.8203 4.38" stroke="#F55681" stroke-width="2" stroke-miterlimit="10" stroke-linecap="round" stroke-linejoin="round"/>
<path d="M54.6403 45.63C52.1503 49.93 39.4803 47.27 26.3203 39.67C13.1703 32.08 4.52028 22.43 7.00028 18.13" stroke="#2F2E41" stroke-width="2" stroke-miterlimit="10" stroke-linecap="round" stroke-linejoin="round"/>
<path d="M7.01018 45.63C4.52018 41.33 13.1702 31.68 26.3302 24.09C39.4802 16.5 52.1602 13.83 54.6502 18.13" stroke="#2F2E41" stroke-width="2" stroke-miterlimit="10" stroke-linecap="round" stroke-linejoin="round"/>
<path d="M30.8203 4.38C35.7903 4.38 39.8203 16.69 39.8203 31.88C39.8203 47.07 35.7903 59.38 30.8203 59.38" stroke="#F55681" stroke-width="2" stroke-miterlimit="10" stroke-linecap="round" stroke-linejoin="round"/>
<path d="M54.64 18.13C57.13 22.43 48.48 32.08 35.32 39.67C22.17 47.26 9.49 49.93 7 45.63" stroke="#2F2E41" stroke-width="2" stroke-miterlimit="10" stroke-linecap="round" stroke-linejoin="round"/>
<path d="M31.3203 36.38C33.8056 36.38 35.8203 34.3653 35.8203 31.88C35.8203 29.3947 33.8056 27.38 31.3203 27.38C28.835 27.38 26.8203 29.3947 26.8203 31.88C26.8203 34.3653 28.835 36.38 31.3203 36.38Z" fill="#F55681"/>
</svg>
