<svg width="64" height="64" viewBox="0 0 64 64" fill="none" xmlns="http://www.w3.org/2000/svg">
<path d="M39.8994 33.44C42.9994 28.63 49.4094 27.24 54.2294 30.34C59.0494 33.44 60.4294 39.85 57.3294 44.67L39.8994 33.44Z" stroke="#F55681" stroke-width="2" stroke-miterlimit="10" stroke-linecap="round" stroke-linejoin="round"/>
<path d="M45.2197 36.87C48.3197 32.06 52.3497 29.13 54.2197 30.34C56.0897 31.55 55.0997 36.43 51.9997 41.24L45.2197 36.87Z" stroke="#F55681" stroke-width="2" stroke-miterlimit="10" stroke-linecap="round" stroke-linejoin="round"/>
<path d="M48.259 39.6L41.249 50.49" stroke="#F55681" stroke-width="2" stroke-miterlimit="10" stroke-linecap="round" stroke-linejoin="round"/>
<path d="M54.7493 30.49C55.285 30.49 55.7193 30.0557 55.7193 29.52C55.7193 28.9843 55.285 28.55 54.7493 28.55C54.2136 28.55 53.7793 28.9843 53.7793 29.52C53.7793 30.0557 54.2136 30.49 54.7493 30.49Z" stroke="#F55681" stroke-width="2" stroke-miterlimit="10" stroke-linecap="round" stroke-linejoin="round"/>
<path d="M53 58H13V57.26C13 53.8 15.8 51 19.26 51H46.74C50.2 51 53 53.8 53 57.26V58Z" fill="white" stroke="#2F2E41" stroke-width="2" stroke-miterlimit="10" stroke-linecap="round" stroke-linejoin="round"/>
<path d="M5.79953 32.12C3.82953 23.51 9.21953 14.93 17.8395 12.96C26.4595 10.99 35.0295 16.39 36.9895 25L5.79953 32.12Z" stroke="#2F2E41" stroke-width="2" stroke-miterlimit="10" stroke-linecap="round" stroke-linejoin="round"/>
<path d="M12.8298 30.52C10.8598 21.91 13.1098 14.05 17.8398 12.97C22.5698 11.89 27.9998 17.99 29.9598 26.61L12.8298 30.52Z" stroke="#2F2E41" stroke-width="2" stroke-miterlimit="10" stroke-linecap="round" stroke-linejoin="round"/>
<path d="M21.6191 29.54L26.9991 51" stroke="#2F2E41" stroke-width="2" stroke-miterlimit="10" stroke-linecap="round" stroke-linejoin="round"/>
<path d="M17.5 13C18.3284 13 19 12.3284 19 11.5C19 10.6716 18.3284 10 17.5 10C16.6716 10 16 10.6716 16 11.5C16 12.3284 16.6716 13 17.5 13Z" stroke="#2F2E41" stroke-width="2" stroke-miterlimit="10" stroke-linecap="round" stroke-linejoin="round"/>
<path d="M49 13C50.6569 13 52 11.6569 52 10C52 8.34315 50.6569 7 49 7C47.3431 7 46 8.34315 46 10C46 11.6569 47.3431 13 49 13Z" stroke="#F55681" stroke-width="2" stroke-miterlimit="10" stroke-linecap="round" stroke-linejoin="round"/>
</svg>
